<svg width="436" height="362" viewBox="0 0 436 362" fill="none" xmlns="http://www.w3.org/2000/svg">
<rect width="436" height="362" fill="url(#paint0_linear)"/>
<g opacity="0.3">
<path d="M64.0728 221.691C64.0728 237.443 52.194 250.15 37.6141 250.15C23.0342 250.15 11.1554 237.443 11.1554 221.691C11.1554 205.939 23.0342 193.232 37.6141 193.232C52.194 193.232 64.0728 205.939 64.0728 221.691Z" fill="#6C63FF"/>
<path d="M64.0728 221.691C64.0728 237.443 52.194 250.15 37.6141 250.15C23.0342 250.15 11.1554 237.443 11.1554 221.691C11.1554 205.939 23.0342 193.232 37.6141 193.232C52.194 193.232 64.0728 205.939 64.0728 221.691Z" fill="url(#paint1_linear)"/>
<path d="M64.0728 221.691C64.0728 237.443 52.194 250.15 37.6141 250.15C23.0342 250.15 11.1554 237.443 11.1554 221.691C11.1554 205.939 23.0342 193.232 37.6141 193.232C52.194 193.232 64.0728 205.939 64.0728 221.691Z" stroke="white" stroke-width="0.993827"/>
</g>
<g opacity="0.3">
<path d="M264.789 221.712C264.789 254.193 240.284 280.463 210.13 280.463C179.976 280.463 155.472 254.193 155.472 221.712C155.472 189.23 179.976 162.96 210.13 162.96C240.284 162.96 264.789 189.23 264.789 221.712Z" fill="#6C63FF"/>
<path d="M264.789 221.712C264.789 254.193 240.284 280.463 210.13 280.463C179.976 280.463 155.472 254.193 155.472 221.712C155.472 189.23 179.976 162.96 210.13 162.96C240.284 162.96 264.789 189.23 264.789 221.712Z" fill="url(#paint2_linear)"/>
<path d="M264.789 221.712C264.789 254.193 240.284 280.463 210.13 280.463C179.976 280.463 155.472 254.193 155.472 221.712C155.472 189.23 179.976 162.96 210.13 162.96C240.284 162.96 264.789 189.23 264.789 221.712Z" stroke="white" stroke-width="0.993827"/>
</g>
<path d="M27.7151 125.95L26.9039 125.764C27.0777 124.889 27.2588 124.016 27.4472 123.147L28.2552 123.349C28.0678 124.213 27.8878 125.08 27.7151 125.95Z" fill="#6C63FF"/>
<path d="M290.626 126.444C290.456 125.573 290.279 124.706 290.095 123.841L290.903 123.642C291.089 124.512 291.267 125.385 291.437 126.261L290.626 126.444Z" fill="#6C63FF"/>
<path d="M291.744 184.535L290.93 184.362C291.09 183.492 291.243 182.619 291.389 181.743L292.205 181.899C292.059 182.781 291.905 183.659 291.744 184.535Z" fill="#6C63FF"/>
<path d="M26.3991 183.983C26.2412 183.106 26.0905 182.227 25.9471 181.346L26.7644 181.192C26.9065 182.069 27.0563 182.942 27.2135 183.813L26.3991 183.983Z" fill="#6C63FF"/>
<path d="M226.828 184.942L226.057 184.614C226.358 183.797 226.65 182.96 226.927 182.127L227.708 182.425C227.429 183.269 227.133 184.115 226.828 184.942Z" fill="#6C63FF"/>
<path d="M91.0546 183.942C90.7612 183.111 90.4761 182.26 90.2072 181.413L90.9925 181.125C91.2581 181.963 91.54 182.805 91.8302 183.626L91.0546 183.942Z" fill="#6C63FF"/>
<path d="M92.3362 127.394L91.5667 127.062C91.8774 126.232 92.2048 125.399 92.5399 124.586L93.2985 124.946C92.9672 125.75 92.6434 126.574 92.3362 127.394Z" fill="#6C63FF"/>
<mask id="path-10-inside-1" fill="white">
<path d="M288.877 118.589C288.451 116.892 287.99 115.177 287.505 113.494L288.298 113.231C288.785 114.925 289.25 116.649 289.678 118.358L288.877 118.589ZM29.465 118.2L28.6648 117.966C29.0989 116.253 29.5695 114.523 30.0636 112.825L30.8553 113.09C30.3641 114.778 29.8966 116.497 29.465 118.2V118.2ZM285.962 108.466C285.419 106.802 284.842 105.131 284.246 103.5L285.018 103.175C285.617 104.816 286.199 106.497 286.744 108.171L285.962 108.466ZM32.421 108.042L31.639 107.744C32.1914 106.068 32.78 104.382 33.3887 102.732L34.1598 103.06C33.5548 104.7 32.9698 106.376 32.421 108.042V108.042ZM282.359 98.605C281.706 96.9947 281.015 95.3735 280.306 93.7865L281.053 93.4006C281.767 94.9976 282.463 96.6288 283.119 98.2491L282.359 98.605ZM36.0689 98.1519L35.3095 97.793C35.9753 96.1672 36.6782 94.533 37.3991 92.9358L38.1454 93.3243C37.429 94.9117 36.7304 96.5359 36.0689 98.1519V98.1519ZM278.087 89.0511C277.322 87.4917 276.521 85.9288 275.707 84.406L276.426 83.9622C277.246 85.4944 278.051 87.0669 278.821 88.6361L278.087 89.0511ZM40.3868 88.5839L39.6542 88.1658C40.4303 86.5968 41.2435 85.0233 42.0713 83.4893L42.789 83.9361C41.9663 85.4607 41.1579 87.0245 40.3868 88.5839ZM273.169 79.857C272.302 78.3646 271.396 76.8685 270.478 75.41L271.165 74.9106C272.089 76.3782 273.001 77.8837 273.873 79.385L273.169 79.857ZM45.348 79.3874L44.6462 78.9127C45.526 77.4121 46.4443 75.9077 47.3758 74.4416L48.061 74.9437C47.1353 76.4011 46.2224 77.8961 45.3481 79.3874H45.348ZM267.635 71.0716C266.672 69.6569 265.666 68.2354 264.646 66.8469L265.297 66.2949C266.324 67.692 267.335 69.1222 268.304 70.5457L267.635 71.0716ZM50.9238 70.6109L50.2564 70.0819C51.2379 68.6526 52.2562 67.2252 53.2833 65.8394L53.932 66.3941C52.9115 67.7716 51.8995 69.1903 50.9239 70.6109H50.9238ZM261.514 62.7419C260.452 61.4005 259.352 60.0615 258.244 58.762L258.856 58.1603C259.97 59.4676 261.077 60.8149 262.145 62.1646L261.514 62.7419ZM57.0818 62.2991L56.4521 61.7192C57.5257 60.3743 58.6382 59.0311 59.7588 57.727L60.3683 58.3313C59.2546 59.6275 58.1487 60.9624 57.0818 62.2991V62.2991ZM254.84 54.9126C253.687 53.6555 252.499 52.4061 251.307 51.1988L251.877 50.5506C253.075 51.7655 254.271 53.0225 255.431 54.2874L254.84 54.9126ZM63.7871 54.496L63.1987 53.8682C64.3634 52.6084 65.564 51.3566 66.767 50.1476L67.3336 50.7982C66.1378 51.9998 64.9448 53.244 63.7871 54.496V54.496ZM247.649 47.6259C246.415 46.4637 245.144 45.3104 243.872 44.1982L244.395 43.5074C245.676 44.6263 246.954 45.7865 248.196 46.9559L247.649 47.6259ZM71.0031 47.2422L70.4588 46.5698C71.7051 45.4059 72.9871 44.2519 74.2697 43.14L74.7905 43.8334C73.516 44.9384 72.2417 46.0854 71.0031 47.2422V47.2422ZM239.979 40.9211C238.672 39.8609 237.326 38.8105 235.978 37.799L236.452 37.0686C237.809 38.0864 239.164 39.1433 240.479 40.2098L239.979 40.9211ZM78.6909 40.5763L78.194 39.8628C79.5166 38.7996 80.8735 37.7498 82.2268 36.7427L82.699 37.4753C81.354 38.4759 80.0055 39.5194 78.6909 40.5763ZM231.871 34.8364C230.492 33.8804 229.077 32.9385 227.665 32.0376L228.089 31.2715C229.509 32.1783 230.933 33.1258 232.321 34.0877L231.871 34.8364ZM86.8094 34.5349L86.3623 33.7845C87.752 32.8294 89.1763 31.8897 90.5956 30.9914L91.0167 31.7592C89.606 32.6519 88.1904 33.5859 86.8094 34.5349V34.5349ZM223.365 29.4067C221.927 28.5636 220.45 27.7362 218.977 26.9474L219.347 26.15C220.829 26.9437 222.315 27.7762 223.762 28.6245L223.365 29.4067ZM95.3152 29.1518L94.9208 28.3678C96.3706 27.526 97.8549 26.7016 99.3318 25.9179L99.6992 26.7167C98.2311 27.4956 96.7561 28.315 95.3152 29.1518ZM214.506 24.6633C213.012 23.9363 211.483 23.2285 209.959 22.559L210.273 21.7341C211.806 22.4078 213.346 23.1204 214.848 23.8519L214.506 24.6633ZM104.163 24.4577L103.823 23.6451C105.324 22.9216 106.86 22.2173 108.388 21.5521L108.7 22.3778C107.181 23.039 105.654 23.7388 104.163 24.4577V24.4577ZM205.341 20.6365C203.795 20.0286 202.22 19.4441 200.658 18.8992L200.915 18.0518C202.486 18.6002 204.071 19.1883 205.626 19.8L205.341 20.6365ZM113.304 20.4795L113.021 19.642C114.57 19.0384 116.149 18.4585 117.715 17.918L117.968 18.7663C116.412 19.3034 114.843 19.8798 113.304 20.4795V20.4795ZM195.918 17.3496C194.339 16.8676 192.731 16.4114 191.139 15.9934L191.336 15.1281C192.937 15.5486 194.555 16.0077 196.145 16.4926L195.918 17.3496ZM122.701 17.2359L122.477 16.378C124.064 15.8992 125.683 15.4452 127.289 15.0287L127.484 15.8948C125.888 16.3088 124.279 16.7599 122.701 17.2359ZM186.317 14.8283C184.711 14.4738 183.076 14.1466 181.458 13.8558L181.595 12.977C183.223 13.2696 184.868 13.5989 186.484 13.9557L186.317 14.8283ZM132.309 14.7446L132.144 13.8715C133.763 13.5193 135.409 13.1952 137.036 12.9081L137.17 13.7873C135.553 14.0725 133.918 14.3946 132.309 14.7446V14.7446ZM176.569 13.076C174.94 12.8491 173.287 12.6523 171.657 12.4902L171.733 11.6032C173.373 11.7661 175.036 11.9643 176.676 12.1924L176.569 13.076ZM142.061 13.0232L141.957 12.1392C143.591 11.9166 145.255 11.7235 146.901 11.5649L146.975 12.4524C145.339 12.6099 143.686 12.8019 142.061 13.0232V13.0232ZM166.728 12.0978C165.093 11.9997 163.432 11.9327 161.789 11.8986L161.805 11.0076C163.458 11.0422 165.13 11.1096 166.774 11.2082L166.728 12.0978ZM151.905 12.075L151.861 11.1853C153.508 11.0916 155.181 11.0294 156.832 11L156.845 11.891C155.204 11.9199 153.542 11.9819 151.905 12.075Z"/>
</mask>
<path d="M288.877 118.589C288.451 116.892 287.99 115.177 287.505 113.494L288.298 113.231C288.785 114.925 289.25 116.649 289.678 118.358L288.877 118.589ZM29.465 118.2L28.6648 117.966C29.0989 116.253 29.5695 114.523 30.0636 112.825L30.8553 113.09C30.3641 114.778 29.8966 116.497 29.465 118.2V118.2ZM285.962 108.466C285.419 106.802 284.842 105.131 284.246 103.5L285.018 103.175C285.617 104.816 286.199 106.497 286.744 108.171L285.962 108.466ZM32.421 108.042L31.639 107.744C32.1914 106.068 32.78 104.382 33.3887 102.732L34.1598 103.06C33.5548 104.7 32.9698 106.376 32.421 108.042V108.042ZM282.359 98.605C281.706 96.9947 281.015 95.3735 280.306 93.7865L281.053 93.4006C281.767 94.9976 282.463 96.6288 283.119 98.2491L282.359 98.605ZM36.0689 98.1519L35.3095 97.793C35.9753 96.1672 36.6782 94.533 37.3991 92.9358L38.1454 93.3243C37.429 94.9117 36.7304 96.5359 36.0689 98.1519V98.1519ZM278.087 89.0511C277.322 87.4917 276.521 85.9288 275.707 84.406L276.426 83.9622C277.246 85.4944 278.051 87.0669 278.821 88.6361L278.087 89.0511ZM40.3868 88.5839L39.6542 88.1658C40.4303 86.5968 41.2435 85.0233 42.0713 83.4893L42.789 83.9361C41.9663 85.4607 41.1579 87.0245 40.3868 88.5839ZM273.169 79.857C272.302 78.3646 271.396 76.8685 270.478 75.41L271.165 74.9106C272.089 76.3782 273.001 77.8837 273.873 79.385L273.169 79.857ZM45.348 79.3874L44.6462 78.9127C45.526 77.4121 46.4443 75.9077 47.3758 74.4416L48.061 74.9437C47.1353 76.4011 46.2224 77.8961 45.3481 79.3874H45.348ZM267.635 71.0716C266.672 69.6569 265.666 68.2354 264.646 66.8469L265.297 66.2949C266.324 67.692 267.335 69.1222 268.304 70.5457L267.635 71.0716ZM50.9238 70.6109L50.2564 70.0819C51.2379 68.6526 52.2562 67.2252 53.2833 65.8394L53.932 66.3941C52.9115 67.7716 51.8995 69.1903 50.9239 70.6109H50.9238ZM261.514 62.7419C260.452 61.4005 259.352 60.0615 258.244 58.762L258.856 58.1603C259.97 59.4676 261.077 60.8149 262.145 62.1646L261.514 62.7419ZM57.0818 62.2991L56.4521 61.7192C57.5257 60.3743 58.6382 59.0311 59.7588 57.727L60.3683 58.3313C59.2546 59.6275 58.1487 60.9624 57.0818 62.2991V62.2991ZM254.84 54.9126C253.687 53.6555 252.499 52.4061 251.307 51.1988L251.877 50.5506C253.075 51.7655 254.271 53.0225 255.431 54.2874L254.84 54.9126ZM63.7871 54.496L63.1987 53.8682C64.3634 52.6084 65.564 51.3566 66.767 50.1476L67.3336 50.7982C66.1378 51.9998 64.9448 53.244 63.7871 54.496V54.496ZM247.649 47.6259C246.415 46.4637 245.144 45.3104 243.872 44.1982L244.395 43.5074C245.676 44.6263 246.954 45.7865 248.196 46.9559L247.649 47.6259ZM71.0031 47.2422L70.4588 46.5698C71.7051 45.4059 72.9871 44.2519 74.2697 43.14L74.7905 43.8334C73.516 44.9384 72.2417 46.0854 71.0031 47.2422V47.2422ZM239.979 40.9211C238.672 39.8609 237.326 38.8105 235.978 37.799L236.452 37.0686C237.809 38.0864 239.164 39.1433 240.479 40.2098L239.979 40.9211ZM78.6909 40.5763L78.194 39.8628C79.5166 38.7996 80.8735 37.7498 82.2268 36.7427L82.699 37.4753C81.354 38.4759 80.0055 39.5194 78.6909 40.5763ZM231.871 34.8364C230.492 33.8804 229.077 32.9385 227.665 32.0376L228.089 31.2715C229.509 32.1783 230.933 33.1258 232.321 34.0877L231.871 34.8364ZM86.8094 34.5349L86.3623 33.7845C87.752 32.8294 89.1763 31.8897 90.5956 30.9914L91.0167 31.7592C89.606 32.6519 88.1904 33.5859 86.8094 34.5349V34.5349ZM223.365 29.4067C221.927 28.5636 220.45 27.7362 218.977 26.9474L219.347 26.15C220.829 26.9437 222.315 27.7762 223.762 28.6245L223.365 29.4067ZM95.3152 29.1518L94.9208 28.3678C96.3706 27.526 97.8549 26.7016 99.3318 25.9179L99.6992 26.7167C98.2311 27.4956 96.7561 28.315 95.3152 29.1518ZM214.506 24.6633C213.012 23.9363 211.483 23.2285 209.959 22.559L210.273 21.7341C211.806 22.4078 213.346 23.1204 214.848 23.8519L214.506 24.6633ZM104.163 24.4577L103.823 23.6451C105.324 22.9216 106.86 22.2173 108.388 21.5521L108.7 22.3778C107.181 23.039 105.654 23.7388 104.163 24.4577V24.4577ZM205.341 20.6365C203.795 20.0286 202.22 19.4441 200.658 18.8992L200.915 18.0518C202.486 18.6002 204.071 19.1883 205.626 19.8L205.341 20.6365ZM113.304 20.4795L113.021 19.642C114.57 19.0384 116.149 18.4585 117.715 17.918L117.968 18.7663C116.412 19.3034 114.843 19.8798 113.304 20.4795V20.4795ZM195.918 17.3496C194.339 16.8676 192.731 16.4114 191.139 15.9934L191.336 15.1281C192.937 15.5486 194.555 16.0077 196.145 16.4926L195.918 17.3496ZM122.701 17.2359L122.477 16.378C124.064 15.8992 125.683 15.4452 127.289 15.0287L127.484 15.8948C125.888 16.3088 124.279 16.7599 122.701 17.2359ZM186.317 14.8283C184.711 14.4738 183.076 14.1466 181.458 13.8558L181.595 12.977C183.223 13.2696 184.868 13.5989 186.484 13.9557L186.317 14.8283ZM132.309 14.7446L132.144 13.8715C133.763 13.5193 135.409 13.1952 137.036 12.9081L137.17 13.7873C135.553 14.0725 133.918 14.3946 132.309 14.7446V14.7446ZM176.569 13.076C174.94 12.8491 173.287 12.6523 171.657 12.4902L171.733 11.6032C173.373 11.7661 175.036 11.9643 176.676 12.1924L176.569 13.076ZM142.061 13.0232L141.957 12.1392C143.591 11.9166 145.255 11.7235 146.901 11.5649L146.975 12.4524C145.339 12.6099 143.686 12.8019 142.061 13.0232V13.0232ZM166.728 12.0978C165.093 11.9997 163.432 11.9327 161.789 11.8986L161.805 11.0076C163.458 11.0422 165.13 11.1096 166.774 11.2082L166.728 12.0978ZM151.905 12.075L151.861 11.1853C153.508 11.0916 155.181 11.0294 156.832 11L156.845 11.891C155.204 11.9199 153.542 11.9819 151.905 12.075Z" fill="url(#paint3_linear)" stroke="#2D9CDB" stroke-width="1.98765" mask="url(#path-10-inside-1)"/>
<mask id="path-11-inside-2" fill="white">
<path d="M159.122 301.432C158.221 301.432 157.321 301.423 156.424 301.404L156.44 300.513C158.08 300.547 159.731 300.549 161.372 300.521L161.386 301.412C160.632 301.425 159.878 301.432 159.122 301.432ZM166.344 301.229L166.301 300.339C167.941 300.246 169.596 300.12 171.219 299.964L171.293 300.852C169.66 301.008 167.995 301.135 166.344 301.229ZM151.467 301.203C149.821 301.104 148.156 300.972 146.52 300.81L146.596 299.922C148.223 300.084 149.877 300.216 151.513 300.314L151.467 301.203ZM176.225 300.281L176.121 299.397C177.754 299.175 179.395 298.92 181.001 298.637L181.135 299.516C179.519 299.801 177.868 300.058 176.225 300.281V300.281ZM141.589 300.222C139.95 299.994 138.299 299.731 136.681 299.44L136.818 298.562C138.426 298.85 140.067 299.111 141.695 299.338L141.589 300.222ZM186.015 298.559L185.851 297.685C187.461 297.336 189.08 296.951 190.665 296.542L190.859 297.408C189.265 297.82 187.635 298.207 186.015 298.559V298.559ZM131.804 298.465C130.186 298.109 128.557 297.716 126.963 297.298L127.16 296.432C128.744 296.847 130.363 297.238 131.971 297.593L131.804 298.465ZM195.661 296.066L195.438 295.208C197.011 294.734 198.6 294.222 200.16 293.685L200.413 294.534C198.843 295.074 197.244 295.59 195.661 296.066V296.066ZM122.165 295.939C120.58 295.456 118.979 294.934 117.405 294.386L117.661 293.539C119.225 294.083 120.816 294.602 122.392 295.082L122.165 295.939ZM205.097 292.819L204.814 291.981C206.347 291.386 207.893 290.75 209.409 290.093L209.719 290.919C208.194 291.58 206.639 292.22 205.097 292.819L205.097 292.819ZM112.704 292.645C111.153 292.037 109.593 291.389 108.066 290.719L108.38 289.894C109.897 290.559 111.448 291.204 112.988 291.808L112.704 292.645ZM214.274 288.837L213.936 288.024C215.429 287.306 216.928 286.55 218.391 285.776L218.757 286.575C217.285 287.354 215.777 288.115 214.274 288.837L214.274 288.837ZM103.5 288.61C101.997 287.88 100.486 287.11 99.0099 286.322L99.3792 285.524C100.846 286.308 102.348 287.073 103.842 287.798L103.5 288.61ZM223.161 284.137L222.767 283.353C224.209 282.519 225.653 281.646 227.059 280.759L227.479 281.527C226.064 282.419 224.611 283.298 223.161 284.137H223.161ZM94.6024 283.858C93.1534 283.011 91.7004 282.124 90.2833 281.222L90.7063 280.455C92.1146 281.352 93.5588 282.234 94.9989 283.075L94.6024 283.858ZM231.706 278.747L231.26 277.996C232.634 277.056 234.014 276.071 235.364 275.07L235.836 275.803C234.477 276.811 233.088 277.801 231.706 278.747H231.706ZM86.0585 278.418C84.6735 277.46 83.2854 276.462 81.9327 275.449L82.4068 274.718C83.7513 275.724 85.1309 276.717 86.5072 277.668L86.0585 278.418ZM239.863 272.698L239.368 271.984C240.676 270.936 241.987 269.845 243.264 268.742L243.784 269.437C242.499 270.546 241.18 271.644 239.863 272.698L239.863 272.698ZM77.9119 272.321C76.5983 271.26 75.2823 270.155 74.0007 269.038L74.5232 268.346C75.797 269.457 77.1049 270.554 78.4104 271.61L77.9119 272.321ZM247.59 266.022L247.048 265.349C248.284 264.199 249.517 263.008 250.714 261.81L251.28 262.461C250.076 263.667 248.835 264.865 247.59 266.022L247.59 266.022ZM70.2042 265.603C68.9626 264.438 67.7256 263.233 66.5278 262.023L67.096 261.374C68.2864 262.577 69.5158 263.774 70.7501 264.932L70.2042 265.603ZM254.847 258.757L254.26 258.128C255.419 256.88 256.569 255.595 257.678 254.31L258.286 254.916C257.17 256.209 256.013 257.501 254.847 258.757ZM62.9759 258.302C61.8203 257.046 60.6688 255.749 59.553 254.445L60.1637 253.842C61.2726 255.138 62.4171 256.427 63.5658 257.675L62.9759 258.302ZM261.593 250.941L260.964 250.36C262.034 249.025 263.094 247.653 264.115 246.282L264.763 246.839C263.736 248.218 262.669 249.598 261.593 250.941V250.941ZM56.2642 250.456C55.1964 249.113 54.1364 247.729 53.1134 246.343L53.7634 245.789C54.7801 247.167 55.8337 248.542 56.8951 249.878L56.2642 250.456ZM267.793 242.614L267.126 242.083C268.105 240.665 269.069 239.213 269.992 237.768L270.675 238.272C269.747 239.726 268.777 241.186 267.793 242.614V242.614ZM50.1052 242.108C49.1306 240.684 48.1678 239.221 47.2432 237.761L47.9292 237.259C48.8479 238.711 49.8049 240.165 50.7734 241.581L50.1052 242.108ZM273.409 233.819L272.709 233.342C273.584 231.859 274.446 230.335 275.273 228.812L275.99 229.261C275.158 230.793 274.29 232.327 273.409 233.819V233.819ZM44.532 233.304C43.6581 231.808 42.7977 230.274 41.9752 228.744L42.6932 228.299C43.5109 229.819 44.366 231.343 45.2347 232.83L44.532 233.304ZM278.413 224.602L277.681 224.182C278.457 222.624 279.213 221.036 279.929 219.46L280.675 219.851C279.954 221.436 279.193 223.035 278.413 224.602ZM39.5761 224.088C38.8064 222.527 38.0535 220.93 37.3385 219.342L38.0853 218.953C38.7959 220.532 39.5441 222.119 40.3091 223.671L39.5761 224.088ZM282.772 215.012L282.014 214.651C282.678 213.044 283.323 211.398 283.933 209.76L284.703 210.091C284.089 211.739 283.44 213.395 282.772 215.012V215.012ZM35.2654 214.51C34.6043 212.892 33.9632 211.241 33.3598 209.602L34.131 209.274C34.7306 210.903 35.3679 212.544 36.0248 214.152L35.2654 214.51ZM286.463 205.096L285.682 204.796C286.235 203.134 286.765 201.441 287.259 199.764L288.05 200.032C287.553 201.72 287.019 203.424 286.463 205.096V205.096ZM31.6248 204.623C31.0761 202.956 30.5488 201.254 30.0579 199.566L30.8497 199.301C31.3375 200.978 31.8613 202.669 32.4068 204.327L31.6248 204.623ZM289.461 194.908L288.661 194.671C289.095 192.982 289.507 191.256 289.884 189.54L290.692 189.745C290.312 191.471 289.898 193.208 289.461 194.908ZM28.6662 194.451C28.2345 192.747 27.8263 191.011 27.4529 189.29L28.2608 189.088C28.6318 190.798 29.0374 192.524 29.4665 194.217L28.6662 194.451Z"/>
</mask>
<path d="M159.122 301.432C158.221 301.432 157.321 301.423 156.424 301.404L156.44 300.513C158.08 300.547 159.731 300.549 161.372 300.521L161.386 301.412C160.632 301.425 159.878 301.432 159.122 301.432ZM166.344 301.229L166.301 300.339C167.941 300.246 169.596 300.12 171.219 299.964L171.293 300.852C169.66 301.008 167.995 301.135 166.344 301.229ZM151.467 301.203C149.821 301.104 148.156 300.972 146.52 300.81L146.596 299.922C148.223 300.084 149.877 300.216 151.513 300.314L151.467 301.203ZM176.225 300.281L176.121 299.397C177.754 299.175 179.395 298.92 181.001 298.637L181.135 299.516C179.519 299.801 177.868 300.058 176.225 300.281V300.281ZM141.589 300.222C139.95 299.994 138.299 299.731 136.681 299.44L136.818 298.562C138.426 298.85 140.067 299.111 141.695 299.338L141.589 300.222ZM186.015 298.559L185.851 297.685C187.461 297.336 189.08 296.951 190.665 296.542L190.859 297.408C189.265 297.82 187.635 298.207 186.015 298.559V298.559ZM131.804 298.465C130.186 298.109 128.557 297.716 126.963 297.298L127.16 296.432C128.744 296.847 130.363 297.238 131.971 297.593L131.804 298.465ZM195.661 296.066L195.438 295.208C197.011 294.734 198.6 294.222 200.16 293.685L200.413 294.534C198.843 295.074 197.244 295.59 195.661 296.066V296.066ZM122.165 295.939C120.58 295.456 118.979 294.934 117.405 294.386L117.661 293.539C119.225 294.083 120.816 294.602 122.392 295.082L122.165 295.939ZM205.097 292.819L204.814 291.981C206.347 291.386 207.893 290.75 209.409 290.093L209.719 290.919C208.194 291.58 206.639 292.22 205.097 292.819L205.097 292.819ZM112.704 292.645C111.153 292.037 109.593 291.389 108.066 290.719L108.38 289.894C109.897 290.559 111.448 291.204 112.988 291.808L112.704 292.645ZM214.274 288.837L213.936 288.024C215.429 287.306 216.928 286.55 218.391 285.776L218.757 286.575C217.285 287.354 215.777 288.115 214.274 288.837L214.274 288.837ZM103.5 288.61C101.997 287.88 100.486 287.11 99.0099 286.322L99.3792 285.524C100.846 286.308 102.348 287.073 103.842 287.798L103.5 288.61ZM223.161 284.137L222.767 283.353C224.209 282.519 225.653 281.646 227.059 280.759L227.479 281.527C226.064 282.419 224.611 283.298 223.161 284.137H223.161ZM94.6024 283.858C93.1534 283.011 91.7004 282.124 90.2833 281.222L90.7063 280.455C92.1146 281.352 93.5588 282.234 94.9989 283.075L94.6024 283.858ZM231.706 278.747L231.26 277.996C232.634 277.056 234.014 276.071 235.364 275.07L235.836 275.803C234.477 276.811 233.088 277.801 231.706 278.747H231.706ZM86.0585 278.418C84.6735 277.46 83.2854 276.462 81.9327 275.449L82.4068 274.718C83.7513 275.724 85.1309 276.717 86.5072 277.668L86.0585 278.418ZM239.863 272.698L239.368 271.984C240.676 270.936 241.987 269.845 243.264 268.742L243.784 269.437C242.499 270.546 241.18 271.644 239.863 272.698L239.863 272.698ZM77.9119 272.321C76.5983 271.26 75.2823 270.155 74.0007 269.038L74.5232 268.346C75.797 269.457 77.1049 270.554 78.4104 271.61L77.9119 272.321ZM247.59 266.022L247.048 265.349C248.284 264.199 249.517 263.008 250.714 261.81L251.28 262.461C250.076 263.667 248.835 264.865 247.59 266.022L247.59 266.022ZM70.2042 265.603C68.9626 264.438 67.7256 263.233 66.5278 262.023L67.096 261.374C68.2864 262.577 69.5158 263.774 70.7501 264.932L70.2042 265.603ZM254.847 258.757L254.26 258.128C255.419 256.88 256.569 255.595 257.678 254.31L258.286 254.916C257.17 256.209 256.013 257.501 254.847 258.757ZM62.9759 258.302C61.8203 257.046 60.6688 255.749 59.553 254.445L60.1637 253.842C61.2726 255.138 62.4171 256.427 63.5658 257.675L62.9759 258.302ZM261.593 250.941L260.964 250.36C262.034 249.025 263.094 247.653 264.115 246.282L264.763 246.839C263.736 248.218 262.669 249.598 261.593 250.941V250.941ZM56.2642 250.456C55.1964 249.113 54.1364 247.729 53.1134 246.343L53.7634 245.789C54.7801 247.167 55.8337 248.542 56.8951 249.878L56.2642 250.456ZM267.793 242.614L267.126 242.083C268.105 240.665 269.069 239.213 269.992 237.768L270.675 238.272C269.747 239.726 268.777 241.186 267.793 242.614V242.614ZM50.1052 242.108C49.1306 240.684 48.1678 239.221 47.2432 237.761L47.9292 237.259C48.8479 238.711 49.8049 240.165 50.7734 241.581L50.1052 242.108ZM273.409 233.819L272.709 233.342C273.584 231.859 274.446 230.335 275.273 228.812L275.99 229.261C275.158 230.793 274.29 232.327 273.409 233.819V233.819ZM44.532 233.304C43.6581 231.808 42.7977 230.274 41.9752 228.744L42.6932 228.299C43.5109 229.819 44.366 231.343 45.2347 232.83L44.532 233.304ZM278.413 224.602L277.681 224.182C278.457 222.624 279.213 221.036 279.929 219.46L280.675 219.851C279.954 221.436 279.193 223.035 278.413 224.602ZM39.5761 224.088C38.8064 222.527 38.0535 220.93 37.3385 219.342L38.0853 218.953C38.7959 220.532 39.5441 222.119 40.3091 223.671L39.5761 224.088ZM282.772 215.012L282.014 214.651C282.678 213.044 283.323 211.398 283.933 209.76L284.703 210.091C284.089 211.739 283.44 213.395 282.772 215.012V215.012ZM35.2654 214.51C34.6043 212.892 33.9632 211.241 33.3598 209.602L34.131 209.274C34.7306 210.903 35.3679 212.544 36.0248 214.152L35.2654 214.51ZM286.463 205.096L285.682 204.796C286.235 203.134 286.765 201.441 287.259 199.764L288.05 200.032C287.553 201.72 287.019 203.424 286.463 205.096V205.096ZM31.6248 204.623C31.0761 202.956 30.5488 201.254 30.0579 199.566L30.8497 199.301C31.3375 200.978 31.8613 202.669 32.4068 204.327L31.6248 204.623ZM289.461 194.908L288.661 194.671C289.095 192.982 289.507 191.256 289.884 189.54L290.692 189.745C290.312 191.471 289.898 193.208 289.461 194.908ZM28.6662 194.451C28.2345 192.747 27.8263 191.011 27.4529 189.29L28.2608 189.088C28.6318 190.798 29.0374 192.524 29.4665 194.217L28.6662 194.451Z" fill="url(#paint4_linear)" stroke="#2D9CDB" stroke-width="1.98765" mask="url(#path-11-inside-2)"/>
<mask id="path-12-inside-3" fill="white">
<path d="M159.122 234.387C158.128 234.387 157.126 234.366 156.142 234.323L156.176 233.433C157.808 233.504 159.476 233.516 161.114 233.467L161.136 234.358C160.467 234.378 159.795 234.387 159.122 234.387ZM166.121 234.03L166.043 233.144C167.676 232.977 169.323 232.746 170.939 232.459L171.074 233.338C169.44 233.629 167.773 233.861 166.121 234.03ZM151.161 233.925C149.512 233.732 147.848 233.476 146.218 233.162L146.364 232.285C147.976 232.595 149.62 232.849 151.251 233.039L151.161 233.925ZM175.971 232.281L175.78 231.415C177.377 231.008 178.979 230.536 180.542 230.013L180.788 230.864C179.207 231.393 177.587 231.87 175.971 232.281V232.281ZM141.334 232.035C139.723 231.601 138.108 231.1 136.533 230.549L136.79 229.701C138.347 230.247 139.944 230.741 141.536 231.171L141.334 232.035ZM185.503 229.093L185.202 228.262C186.729 227.624 188.255 226.92 189.739 226.17L190.093 226.975C188.591 227.735 187.047 228.447 185.503 229.092V229.093ZM131.839 228.708C130.301 228.04 128.765 227.305 127.275 226.524L127.639 225.724C129.112 226.495 130.63 227.221 132.15 227.883L131.839 228.708ZM194.536 224.524L194.132 223.746C195.564 222.886 196.987 221.964 198.359 221.003L198.811 221.749C197.424 222.721 195.985 223.655 194.536 224.524ZM122.862 224.009C121.425 223.12 119.998 222.166 118.621 221.173L119.083 220.434C120.444 221.415 121.855 222.358 123.276 223.237L122.862 224.009ZM202.901 218.667L202.401 217.956C203.712 216.894 205.004 215.771 206.24 214.619L206.784 215.292C205.533 216.457 204.227 217.593 202.901 218.667ZM114.571 218.033C113.257 216.939 111.965 215.785 110.729 214.601L111.281 213.937C112.503 215.106 113.78 216.247 115.079 217.329L114.571 218.033ZM210.443 211.641L209.859 211.009C211.022 209.766 212.159 208.465 213.239 207.141L213.863 207.729C212.77 209.067 211.62 210.383 210.443 211.641V211.641ZM107.115 210.898C105.955 209.626 104.821 208.294 103.744 206.939L104.375 206.36C105.44 207.7 106.561 209.017 107.707 210.275L107.115 210.898ZM217.026 203.576L216.367 203.035C217.361 201.636 218.323 200.181 219.226 198.709L219.919 199.2C219.005 200.688 218.032 202.161 217.026 203.576ZM100.633 202.741C99.6436 201.309 98.6891 199.823 97.7955 198.324L98.4941 197.844C99.3774 199.325 100.321 200.795 101.299 202.21L100.633 202.741ZM222.524 194.622L221.802 194.184C222.609 192.651 223.376 191.068 224.083 189.478L224.832 189.862C224.116 191.47 223.34 193.072 222.524 194.622H222.524ZM95.2474 193.71C94.4498 192.146 93.6937 190.534 93.0001 188.919L93.7534 188.546C94.4388 190.142 95.1864 191.736 95.9747 193.282L95.2474 193.71Z"/>
</mask>
<path d="M159.122 234.387C158.128 234.387 157.126 234.366 156.142 234.323L156.176 233.433C157.808 233.504 159.476 233.516 161.114 233.467L161.136 234.358C160.467 234.378 159.795 234.387 159.122 234.387ZM166.121 234.03L166.043 233.144C167.676 232.977 169.323 232.746 170.939 232.459L171.074 233.338C169.44 233.629 167.773 233.861 166.121 234.03ZM151.161 233.925C149.512 233.732 147.848 233.476 146.218 233.162L146.364 232.285C147.976 232.595 149.62 232.849 151.251 233.039L151.161 233.925ZM175.971 232.281L175.78 231.415C177.377 231.008 178.979 230.536 180.542 230.013L180.788 230.864C179.207 231.393 177.587 231.87 175.971 232.281V232.281ZM141.334 232.035C139.723 231.601 138.108 231.1 136.533 230.549L136.79 229.701C138.347 230.247 139.944 230.741 141.536 231.171L141.334 232.035ZM185.503 229.093L185.202 228.262C186.729 227.624 188.255 226.92 189.739 226.17L190.093 226.975C188.591 227.735 187.047 228.447 185.503 229.092V229.093ZM131.839 228.708C130.301 228.04 128.765 227.305 127.275 226.524L127.639 225.724C129.112 226.495 130.63 227.221 132.15 227.883L131.839 228.708ZM194.536 224.524L194.132 223.746C195.564 222.886 196.987 221.964 198.359 221.003L198.811 221.749C197.424 222.721 195.985 223.655 194.536 224.524ZM122.862 224.009C121.425 223.12 119.998 222.166 118.621 221.173L119.083 220.434C120.444 221.415 121.855 222.358 123.276 223.237L122.862 224.009ZM202.901 218.667L202.401 217.956C203.712 216.894 205.004 215.771 206.24 214.619L206.784 215.292C205.533 216.457 204.227 217.593 202.901 218.667ZM114.571 218.033C113.257 216.939 111.965 215.785 110.729 214.601L111.281 213.937C112.503 215.106 113.78 216.247 115.079 217.329L114.571 218.033ZM210.443 211.641L209.859 211.009C211.022 209.766 212.159 208.465 213.239 207.141L213.863 207.729C212.77 209.067 211.62 210.383 210.443 211.641V211.641ZM107.115 210.898C105.955 209.626 104.821 208.294 103.744 206.939L104.375 206.36C105.44 207.7 106.561 209.017 107.707 210.275L107.115 210.898ZM217.026 203.576L216.367 203.035C217.361 201.636 218.323 200.181 219.226 198.709L219.919 199.2C219.005 200.688 218.032 202.161 217.026 203.576ZM100.633 202.741C99.6436 201.309 98.6891 199.823 97.7955 198.324L98.4941 197.844C99.3774 199.325 100.321 200.795 101.299 202.21L100.633 202.741ZM222.524 194.622L221.802 194.184C222.609 192.651 223.376 191.068 224.083 189.478L224.832 189.862C224.116 191.47 223.34 193.072 222.524 194.622H222.524ZM95.2474 193.71C94.4498 192.146 93.6937 190.534 93.0001 188.919L93.7534 188.546C94.4388 190.142 95.1864 191.736 95.9747 193.282L95.2474 193.71Z" fill="url(#paint5_linear)"/>
<path d="M159.122 234.387L159.122 233.394H159.122V234.387ZM156.142 234.323L155.149 234.285L155.112 235.273L156.099 235.316L156.142 234.323ZM156.176 233.433L156.219 232.44L155.22 232.397L155.182 233.395L156.176 233.433ZM161.114 233.467L162.107 233.442L162.082 232.444L161.084 232.474L161.114 233.467ZM161.136 234.358L161.166 235.352L162.155 235.323L162.13 234.333L161.136 234.358ZM166.121 234.03L165.131 234.118L165.22 235.121L166.222 235.019L166.121 234.03ZM166.043 233.144L165.941 232.155L164.966 232.255L165.053 233.231L166.043 233.144ZM170.939 232.459L171.921 232.308L171.767 231.303L170.765 231.481L170.939 232.459ZM171.074 233.338L171.248 234.317L172.204 234.147L172.057 233.187L171.074 233.338ZM151.161 233.925L151.046 234.912L152.048 235.029L152.15 234.025L151.161 233.925ZM146.218 233.162L145.237 232.998L145.078 233.955L146.03 234.138L146.218 233.162ZM146.364 232.285L146.551 231.309L145.551 231.117L145.384 232.121L146.364 232.285ZM151.251 233.039L152.24 233.14L152.339 232.166L151.367 232.052L151.251 233.039ZM175.971 232.281L175.001 232.496L176.965 232.281H175.971ZM175.78 231.415L175.534 230.452L174.602 230.69L174.809 231.629L175.78 231.415ZM180.542 230.013L181.496 229.737L181.208 228.743L180.226 229.071L180.542 230.013ZM180.788 230.864L181.103 231.807L182.008 231.504L181.743 230.588L180.788 230.864ZM175.971 232.281L175.726 231.318L174.978 231.509V232.281H175.971ZM141.334 232.035L141.075 232.995L142.068 233.262L142.302 232.261L141.334 232.035ZM136.533 230.549L135.582 230.26L135.305 231.172L136.204 231.487L136.533 230.549ZM136.79 229.701L137.119 228.763L136.14 228.42L135.839 229.413L136.79 229.701ZM141.536 231.171L142.504 231.397L142.723 230.462L141.795 230.212L141.536 231.171ZM185.503 229.093L184.569 229.431L186.497 229.093H185.503ZM185.202 228.262L184.819 227.346L183.945 227.711L184.268 228.601L185.202 228.262ZM189.739 226.17L190.649 225.77L190.228 224.809L189.291 225.283L189.739 226.17ZM190.093 226.975L190.542 227.862L191.381 227.437L191.003 226.576L190.093 226.975ZM185.503 229.092L185.12 228.176L184.509 228.431V229.092H185.503ZM131.839 228.708L131.443 229.62L132.401 230.036L132.769 229.059L131.839 228.708ZM127.275 226.524L126.371 226.113L125.982 226.969L126.814 227.405L127.275 226.524ZM127.639 225.724L128.1 224.844L127.169 224.356L126.734 225.313L127.639 225.724ZM132.15 227.883L133.08 228.233L133.414 227.348L132.547 226.971L132.15 227.883ZM194.536 224.524L193.654 224.982L194.141 225.919L195.047 225.376L194.536 224.524ZM194.132 223.746L193.62 222.894L192.819 223.375L193.25 224.204L194.132 223.746ZM198.359 221.003L199.208 220.488L198.658 219.58L197.789 220.189L198.359 221.003ZM198.811 221.749L199.381 222.564L200.144 222.03L199.661 221.234L198.811 221.749ZM122.862 224.009L122.34 224.854L123.239 225.41L123.738 224.479L122.862 224.009ZM118.621 221.173L117.778 220.647L117.285 221.436L118.04 221.98L118.621 221.173ZM119.083 220.434L119.664 219.628L118.803 219.007L118.24 219.907L119.083 220.434ZM123.276 223.237L124.152 223.707L124.594 222.884L123.799 222.392L123.276 223.237ZM202.901 218.667L202.088 219.239L202.7 220.109L203.527 219.439L202.901 218.667ZM202.401 217.956L201.775 217.184L201.054 217.769L201.588 218.528L202.401 217.956ZM206.24 214.619L207.014 213.995L206.344 213.164L205.563 213.892L206.24 214.619ZM206.784 215.292L207.461 216.019L208.139 215.389L207.557 214.668L206.784 215.292ZM114.571 218.033L113.935 218.796L114.753 219.478L115.376 218.614L114.571 218.033ZM110.729 214.601L109.965 213.966L109.373 214.679L110.042 215.319L110.729 214.601ZM111.281 213.937L111.969 213.219L111.198 212.481L110.517 213.302L111.281 213.937ZM115.079 217.329L115.885 217.91L116.427 217.159L115.715 216.565L115.079 217.329ZM210.443 211.641L209.714 212.316L211.437 214.177V211.641H210.443ZM209.859 211.009L209.133 210.33L208.501 211.005L209.129 211.684L209.859 211.009ZM213.239 207.141L213.921 206.418L213.144 205.686L212.469 206.513L213.239 207.141ZM213.863 207.729L214.633 208.357L215.218 207.64L214.544 207.005L213.863 207.729ZM210.443 211.641L209.718 210.961L209.449 211.248V211.641H210.443ZM107.115 210.898L106.38 211.568L107.1 212.357L107.835 211.583L107.115 210.898ZM103.744 206.939L103.072 206.206L102.39 206.832L102.966 207.557L103.744 206.939ZM104.375 206.36L105.153 205.742L104.49 204.907L103.703 205.628L104.375 206.36ZM107.707 210.275L108.428 210.96L109.065 210.29L108.442 209.606L107.707 210.275ZM217.026 203.576L216.396 204.344L217.22 205.019L217.836 204.151L217.026 203.576ZM216.367 203.035L215.557 202.46L215.02 203.216L215.737 203.804L216.367 203.035ZM219.226 198.709L219.801 197.899L218.935 197.285L218.379 198.189L219.226 198.709ZM219.919 199.2L220.766 199.72L221.253 198.927L220.493 198.389L219.919 199.2ZM100.633 202.741L99.8149 203.306L100.42 204.181L101.252 203.518L100.633 202.741ZM97.7955 198.324L97.2325 197.505L96.4648 198.033L96.9419 198.833L97.7955 198.324ZM98.4941 197.844L99.3477 197.335L98.8047 196.425L97.9311 197.025L98.4941 197.844ZM101.299 202.21L101.918 202.987L102.644 202.409L102.117 201.645L101.299 202.21ZM222.524 194.622L222.008 195.472L222.246 195.616H222.524V194.622ZM221.802 194.184L220.923 193.721L220.488 194.548L221.286 195.033L221.802 194.184ZM224.083 189.478L224.537 188.594L223.602 188.114L223.175 189.074L224.083 189.478ZM224.832 189.862L225.74 190.266L226.122 189.408L225.285 188.978L224.832 189.862ZM222.524 194.622V195.616H223.124L223.403 195.085L222.524 194.622ZM95.2474 193.71L94.362 194.162L94.8416 195.102L95.7515 194.567L95.2474 193.71ZM93.0001 188.919L92.5589 188.028L91.7155 188.446L92.0869 189.311L93.0001 188.919ZM93.7534 188.546L94.6666 188.154L94.2526 187.189L93.3121 187.655L93.7534 188.546ZM95.9747 193.282L96.4788 194.139L97.2849 193.664L96.8602 192.831L95.9747 193.282ZM159.122 233.394C158.143 233.394 157.155 233.372 156.185 233.33L156.099 235.316C157.097 235.359 158.114 235.381 159.122 235.381V233.394ZM157.135 234.36L157.169 233.47L155.182 233.395L155.149 234.285L157.135 234.36ZM156.132 234.426C157.789 234.498 159.481 234.51 161.143 234.461L161.084 232.474C159.471 232.522 157.827 232.51 156.219 232.44L156.132 234.426ZM160.12 233.493L160.143 234.383L162.13 234.333L162.107 233.442L160.12 233.493ZM161.107 233.365C160.448 233.384 159.786 233.394 159.122 233.394L159.122 235.381C159.805 235.381 160.486 235.371 161.166 235.352L161.107 233.365ZM167.111 233.942L167.033 233.056L165.053 233.231L165.131 234.118L167.111 233.942ZM166.144 234.132C167.802 233.963 169.473 233.729 171.113 233.438L170.765 231.481C169.173 231.763 167.55 231.99 165.941 232.155L166.144 234.132ZM169.957 232.61L170.092 233.489L172.057 233.187L171.921 232.308L169.957 232.61ZM170.9 232.36C169.29 232.646 167.648 232.875 166.02 233.041L166.222 235.019C167.899 234.848 169.59 234.611 171.248 234.317L170.9 232.36ZM151.277 232.938C149.651 232.748 148.012 232.495 146.405 232.186L146.03 234.138C147.685 234.456 149.372 234.716 151.046 234.912L151.277 232.938ZM147.198 233.325L147.344 232.448L145.384 232.121L145.237 232.998L147.198 233.325ZM146.176 233.261C147.812 233.575 149.48 233.833 151.136 234.026L151.367 232.052C149.76 231.864 148.14 231.614 146.551 231.309L146.176 233.261ZM150.262 232.939L150.173 233.825L152.15 234.025L152.24 233.14L150.262 232.939ZM176.942 232.067L176.75 231.2L174.809 231.629L175.001 232.496L176.942 232.067ZM176.025 232.378C177.646 231.965 179.271 231.487 180.857 230.956L180.226 229.071C178.687 229.586 177.108 230.05 175.534 230.452L176.025 232.378ZM179.587 230.29L179.834 231.141L181.743 230.588L181.496 229.737L179.587 230.29ZM180.473 229.922C178.915 230.443 177.318 230.913 175.726 231.318L176.217 233.244C177.856 232.827 179.499 232.343 181.103 231.807L180.473 229.922ZM174.978 232.281V232.281H176.965V232.281H174.978ZM141.593 231.076C140.006 230.647 138.414 230.154 136.861 229.611L136.204 231.487C137.802 232.046 139.441 232.554 141.075 232.995L141.593 231.076ZM137.484 230.837L137.741 229.99L135.839 229.413L135.582 230.26L137.484 230.837ZM136.462 230.639C138.042 231.193 139.661 231.694 141.277 232.131L141.795 230.212C140.226 229.788 138.653 229.301 137.119 228.763L136.462 230.639ZM140.568 230.945L140.366 231.809L142.302 232.261L142.504 231.397L140.568 230.945ZM186.438 228.754L186.137 227.924L184.268 228.601L184.569 229.431L186.438 228.754ZM185.586 229.179C187.134 228.532 188.683 227.818 190.188 227.056L189.291 225.283C187.828 226.022 186.323 226.717 184.819 227.346L185.586 229.179ZM188.829 226.569L189.183 227.375L191.003 226.576L190.649 225.77L188.829 226.569ZM189.644 226.088C188.164 226.837 186.642 227.54 185.12 228.176L185.886 230.009C187.453 229.355 189.019 228.632 190.542 227.862L189.644 226.088ZM184.509 229.092V229.093H186.497V229.092H184.509ZM132.235 227.797C130.719 227.138 129.205 226.413 127.737 225.644L126.814 227.405C128.325 228.196 129.882 228.942 131.443 229.62L132.235 227.797ZM128.18 226.936L128.544 226.135L126.734 225.313L126.371 226.113L128.18 226.936ZM127.178 226.604C128.672 227.387 130.211 228.123 131.754 228.794L132.547 226.971C131.048 226.32 129.551 225.604 128.1 224.844L127.178 226.604ZM131.22 227.532L130.909 228.358L132.769 229.059L133.08 228.233L131.22 227.532ZM195.418 224.065L195.013 223.288L193.25 224.204L193.654 224.982L195.418 224.065ZM194.643 224.598C196.096 223.726 197.537 222.791 198.929 221.817L197.789 220.189C196.436 221.136 195.033 222.046 193.62 222.894L194.643 224.598ZM197.509 221.518L197.962 222.265L199.661 221.234L199.208 220.488L197.509 221.518ZM198.241 220.935C196.873 221.893 195.454 222.814 194.025 223.671L195.047 225.376C196.517 224.495 197.975 223.548 199.381 222.564L198.241 220.935ZM123.385 223.164C121.968 222.287 120.56 221.346 119.202 220.367L118.04 221.98C119.436 222.986 120.882 223.953 122.34 224.854L123.385 223.164ZM119.464 221.7L119.926 220.961L118.24 219.907L117.778 220.647L119.464 221.7ZM118.502 221.24C119.882 222.235 121.312 223.191 122.753 224.083L123.799 222.392C122.398 221.525 121.007 220.595 119.664 219.628L118.502 221.24ZM122.4 222.768L121.987 223.539L123.738 224.479L124.152 223.707L122.4 222.768ZM203.714 218.096L203.214 217.385L201.588 218.528L202.088 219.239L203.714 218.096ZM203.027 218.728C204.356 217.651 205.665 216.513 206.918 215.346L205.563 213.892C204.343 215.028 203.069 216.136 201.775 217.184L203.027 218.728ZM205.467 215.243L206.01 215.916L207.557 214.668L207.014 213.995L205.467 215.243ZM206.107 214.565C204.872 215.714 203.583 216.835 202.275 217.895L203.527 219.439C204.87 218.35 206.194 217.2 207.461 216.019L206.107 214.565ZM115.206 217.269C113.911 216.19 112.636 215.051 111.417 213.884L110.042 215.319C111.294 216.518 112.604 217.688 113.935 218.796L115.206 217.269ZM111.494 215.236L112.046 214.572L110.517 213.302L109.965 213.966L111.494 215.236ZM110.594 214.655C111.832 215.84 113.127 216.996 114.443 218.092L115.715 216.565C114.434 215.498 113.173 214.372 111.969 213.219L110.594 214.655ZM114.273 216.747L113.765 217.451L115.376 218.614L115.885 217.91L114.273 216.747ZM211.173 210.965L210.588 210.334L209.129 211.684L209.714 212.316L211.173 210.965ZM210.584 211.688C211.763 210.429 212.915 209.11 214.009 207.77L212.469 206.513C211.403 207.819 210.281 209.103 209.133 210.33L210.584 211.688ZM212.558 207.865L213.182 208.452L214.544 207.005L213.921 206.418L212.558 207.865ZM213.093 207.1C212.015 208.421 210.879 209.721 209.718 210.961L211.169 212.32C212.361 211.046 213.526 209.713 214.633 208.357L213.093 207.1ZM209.449 211.641V211.641H211.437V211.641H209.449ZM107.849 210.229C106.705 208.973 105.585 207.658 104.522 206.32L102.966 207.557C104.057 208.93 105.205 210.279 106.38 211.568L107.849 210.229ZM104.416 207.671L105.047 207.093L103.703 205.628L103.072 206.206L104.416 207.671ZM103.597 206.978C104.675 208.336 105.811 209.67 106.973 210.945L108.442 209.606C107.311 208.364 106.204 207.064 105.153 205.742L103.597 206.978ZM106.987 209.59L106.395 210.213L107.835 211.583L108.428 210.96L106.987 209.59ZM217.656 202.807L216.997 202.267L215.737 203.804L216.396 204.344L217.656 202.807ZM217.177 203.611C218.184 202.193 219.158 200.72 220.073 199.23L218.379 198.189C217.487 199.642 216.538 201.079 215.557 202.46L217.177 203.611ZM218.652 199.52L219.344 200.011L220.493 198.389L219.801 197.899L218.652 199.52ZM219.072 198.68C218.169 200.15 217.209 201.603 216.216 203L217.836 204.151C218.855 202.718 219.84 201.227 220.766 199.72L219.072 198.68ZM101.45 202.176C100.474 200.763 99.5314 199.295 98.6491 197.815L96.9419 198.833C97.8468 200.351 98.8133 201.856 99.8149 203.306L101.45 202.176ZM98.3585 199.143L99.0571 198.663L97.9311 197.025L97.2325 197.505L98.3585 199.143ZM97.6405 198.353C98.535 199.853 99.4906 201.341 100.481 202.775L102.117 201.645C101.151 200.248 100.22 198.798 99.3477 197.335L97.6405 198.353ZM100.68 201.433L100.013 201.964L101.252 203.518L101.918 202.987L100.68 201.433ZM223.04 193.773L222.318 193.334L221.286 195.033L222.008 195.472L223.04 193.773ZM222.682 194.646C223.498 193.094 224.275 191.492 224.991 189.882L223.175 189.074C222.477 190.644 221.719 192.208 220.923 193.721L222.682 194.646ZM223.629 190.363L224.378 190.747L225.285 188.978L224.537 188.594L223.629 190.363ZM223.923 189.459C223.217 191.047 222.45 192.628 221.644 194.159L223.403 195.085C224.23 193.515 225.016 191.894 225.74 190.266L223.923 189.459ZM222.524 193.628H222.524V195.616H222.524V193.628ZM96.1328 193.259C95.3451 191.714 94.5982 190.122 93.9133 188.527L92.0869 189.311C92.7891 190.946 93.5544 192.578 94.362 194.162L96.1328 193.259ZM93.4414 189.809L94.1947 189.436L93.3121 187.655L92.5589 188.028L93.4414 189.809ZM92.8402 188.938C93.5343 190.554 94.2911 192.168 95.0893 193.734L96.8602 192.831C96.0817 191.304 95.3434 189.73 94.6666 188.154L92.8402 188.938ZM95.4706 192.426L94.7433 192.854L95.7515 194.567L96.4788 194.139L95.4706 192.426Z" fill="#2D9CDB" mask="url(#path-12-inside-3)"/>
<mask id="path-14-inside-4" fill="white">
<path d="M95.4778 120.12L94.7448 119.703C95.5282 118.112 96.3744 116.529 97.26 114.998L97.9642 115.469C97.089 116.982 96.2525 118.546 95.4778 120.12ZM222.111 118.822C221.31 117.266 220.446 115.719 219.543 114.223L220.239 113.738C221.152 115.251 222.026 116.817 222.837 118.39L222.111 118.822ZM100.745 111.014L100.072 110.493C101.054 109.032 102.095 107.59 103.168 106.206L103.806 106.777C102.745 108.145 101.715 109.57 100.745 111.014ZM216.684 109.826C215.689 108.404 214.634 106.999 213.549 105.652L214.176 105.069C215.274 106.432 216.341 107.852 217.347 109.291L216.684 109.826ZM107.131 102.776L106.532 102.16C107.691 100.859 108.907 99.5846 110.147 98.3722L110.706 99.0313C109.48 100.23 108.277 101.49 107.131 102.776ZM210.154 101.72C208.985 100.457 207.76 99.2218 206.514 98.0485L207.06 97.3786C208.321 98.5651 209.56 99.8146 210.742 101.092L210.154 101.72ZM114.512 95.5599L113.997 94.8612C115.313 93.743 116.681 92.6606 118.063 91.6441L118.531 92.3793C117.165 93.3842 115.812 94.4542 114.512 95.5599ZM202.647 94.6556C201.329 93.5781 199.957 92.5357 198.571 91.5577L199.027 90.8129C200.429 91.8022 201.816 92.8565 203.149 93.9465L202.647 94.6556ZM122.746 89.5057L122.326 88.7374C123.772 87.8258 125.266 86.957 126.767 86.1552L127.137 86.9531C125.652 87.7455 124.175 88.6045 122.746 89.5057ZM194.306 88.7707C192.859 87.8975 191.366 87.0693 189.87 86.3084L190.225 85.5031C191.739 86.2727 193.248 87.1108 194.712 87.9937L194.306 88.7707ZM131.682 84.7346L131.365 83.9111C132.914 83.2237 134.507 82.5866 136.097 82.0174L136.359 82.8626C134.787 83.4254 133.213 84.0551 131.682 84.7346V84.7346ZM185.286 84.1843C183.741 83.5359 182.156 82.9388 180.575 82.4091L180.822 81.5586C182.421 82.0944 184.025 82.6984 185.588 83.3542L185.286 84.1843ZM141.147 81.3465L140.941 80.4836C142.563 80.0353 144.223 79.6427 145.872 79.3169L146.022 80.193C144.392 80.5152 142.751 80.9032 141.147 81.3465V81.3465ZM175.761 80.992C174.148 80.582 172.501 80.2278 170.866 79.9394L171 79.0602C172.655 79.3519 174.321 79.7101 175.952 80.125L175.761 80.992ZM150.961 79.4069L150.868 78.5216C152.528 78.3202 154.222 78.1782 155.902 78.0992L155.938 78.9893C154.277 79.0674 152.602 79.2079 150.961 79.4069V79.4069ZM165.914 79.2551C164.268 79.0893 162.591 78.983 160.931 78.939L160.951 78.0485C162.631 78.0929 164.326 78.2004 165.992 78.3681L165.914 79.2551Z"/>
</mask>
<path d="M95.4778 120.12L94.7448 119.703C95.5282 118.112 96.3744 116.529 97.26 114.998L97.9642 115.469C97.089 116.982 96.2525 118.546 95.4778 120.12ZM222.111 118.822C221.31 117.266 220.446 115.719 219.543 114.223L220.239 113.738C221.152 115.251 222.026 116.817 222.837 118.39L222.111 118.822ZM100.745 111.014L100.072 110.493C101.054 109.032 102.095 107.59 103.168 106.206L103.806 106.777C102.745 108.145 101.715 109.57 100.745 111.014ZM216.684 109.826C215.689 108.404 214.634 106.999 213.549 105.652L214.176 105.069C215.274 106.432 216.341 107.852 217.347 109.291L216.684 109.826ZM107.131 102.776L106.532 102.16C107.691 100.859 108.907 99.5846 110.147 98.3722L110.706 99.0313C109.48 100.23 108.277 101.49 107.131 102.776ZM210.154 101.72C208.985 100.457 207.76 99.2218 206.514 98.0485L207.06 97.3786C208.321 98.5651 209.56 99.8146 210.742 101.092L210.154 101.72ZM114.512 95.5599L113.997 94.8612C115.313 93.743 116.681 92.6606 118.063 91.6441L118.531 92.3793C117.165 93.3842 115.812 94.4542 114.512 95.5599ZM202.647 94.6556C201.329 93.5781 199.957 92.5357 198.571 91.5577L199.027 90.8129C200.429 91.8022 201.816 92.8565 203.149 93.9465L202.647 94.6556ZM122.746 89.5057L122.326 88.7374C123.772 87.8258 125.266 86.957 126.767 86.1552L127.137 86.9531C125.652 87.7455 124.175 88.6045 122.746 89.5057ZM194.306 88.7707C192.859 87.8975 191.366 87.0693 189.87 86.3084L190.225 85.5031C191.739 86.2727 193.248 87.1108 194.712 87.9937L194.306 88.7707ZM131.682 84.7346L131.365 83.9111C132.914 83.2237 134.507 82.5866 136.097 82.0174L136.359 82.8626C134.787 83.4254 133.213 84.0551 131.682 84.7346V84.7346ZM185.286 84.1843C183.741 83.5359 182.156 82.9388 180.575 82.4091L180.822 81.5586C182.421 82.0944 184.025 82.6984 185.588 83.3542L185.286 84.1843ZM141.147 81.3465L140.941 80.4836C142.563 80.0353 144.223 79.6427 145.872 79.3169L146.022 80.193C144.392 80.5152 142.751 80.9032 141.147 81.3465V81.3465ZM175.761 80.992C174.148 80.582 172.501 80.2278 170.866 79.9394L171 79.0602C172.655 79.3519 174.321 79.7101 175.952 80.125L175.761 80.992ZM150.961 79.4069L150.868 78.5216C152.528 78.3202 154.222 78.1782 155.902 78.0992L155.938 78.9893C154.277 79.0674 152.602 79.2079 150.961 79.4069V79.4069ZM165.914 79.2551C164.268 79.0893 162.591 78.983 160.931 78.939L160.951 78.0485C162.631 78.0929 164.326 78.2004 165.992 78.3681L165.914 79.2551Z" fill="url(#paint6_linear)"/>
<path d="M95.4778 120.12L94.987 120.984L95.9037 121.505L96.3694 120.559L95.4778 120.12ZM94.7448 119.703L93.8531 119.265L93.4394 120.105L94.254 120.568L94.7448 119.703ZM97.26 114.998L97.8118 114.172L96.9305 113.583L96.3998 114.501L97.26 114.998ZM97.9642 115.469L98.8245 115.966L99.2911 115.16L98.5161 114.642L97.9642 115.469ZM222.111 118.822L221.228 119.277L221.711 120.216L222.619 119.676L222.111 118.822ZM219.543 114.223L218.975 113.408L218.211 113.939L218.692 114.736L219.543 114.223ZM220.239 113.738L221.09 113.225L220.542 112.316L219.671 112.923L220.239 113.738ZM222.837 118.39L223.345 119.245L224.149 118.767L223.72 117.935L222.837 118.39ZM100.745 111.014L100.136 111.799L100.976 112.451L101.57 111.569L100.745 111.014ZM100.072 110.493L99.2475 109.938L98.7296 110.709L99.4632 111.278L100.072 110.493ZM103.168 106.206L103.831 105.466L103.036 104.755L102.383 105.597L103.168 106.206ZM103.806 106.777L104.591 107.386L105.159 106.654L104.468 106.036L103.806 106.777ZM216.684 109.826L215.869 110.396L216.479 111.268L217.308 110.6L216.684 109.826ZM213.549 105.652L212.872 104.924L212.195 105.554L212.775 106.275L213.549 105.652ZM214.176 105.069L214.95 104.445L214.281 103.615L213.499 104.341L214.176 105.069ZM217.347 109.291L217.971 110.065L218.693 109.482L218.161 108.721L217.347 109.291ZM107.131 102.776L106.419 103.469L107.163 104.234L107.873 103.437L107.131 102.776ZM106.532 102.16L105.79 101.499L105.174 102.19L105.82 102.853L106.532 102.16ZM110.147 98.3722L110.905 97.7297L110.215 96.9154L109.452 97.6616L110.147 98.3722ZM110.706 99.0313L111.4 99.7419L112.062 99.0949L111.464 98.3888L110.706 99.0313ZM210.154 101.72L209.424 102.395L210.15 103.179L210.879 102.399L210.154 101.72ZM206.514 98.0485L205.744 97.4202L205.158 98.1376L205.833 98.7723L206.514 98.0485ZM207.06 97.3786L207.742 96.6548L206.965 95.9239L206.29 96.7502L207.06 97.3786ZM210.742 101.092L211.468 101.771L212.1 101.096L211.472 100.417L210.742 101.092ZM114.512 95.5599L113.711 96.1494L114.343 97.0072L115.155 96.3171L114.512 95.5599ZM113.997 94.8612L113.353 94.1039L112.647 94.7043L113.197 95.4507L113.997 94.8612ZM118.063 91.6441L118.901 91.11L118.33 90.2141L117.474 90.8435L118.063 91.6441ZM118.531 92.3793L119.12 93.18L119.869 92.6292L119.37 91.8452L118.531 92.3793ZM202.647 94.6556L202.018 95.4252L202.843 96.099L203.458 95.23L202.647 94.6556ZM198.571 91.5577L197.723 91.0395L197.238 91.8333L197.998 92.3697L198.571 91.5577ZM199.027 90.8129L199.6 90.0009L198.732 89.3889L198.179 90.2947L199.027 90.8129ZM203.149 93.9465L203.96 94.5209L204.496 93.764L203.778 93.177L203.149 93.9465ZM122.746 89.5057L121.874 89.9824L122.382 90.9105L123.276 90.3463L122.746 89.5057ZM122.326 88.7374L121.796 87.8968L121.006 88.3948L121.454 89.2141L122.326 88.7374ZM126.767 86.1552L127.669 85.7377L127.227 84.7829L126.299 85.2786L126.767 86.1552ZM127.137 86.9531L127.605 87.8298L128.433 87.3876L128.038 86.5356L127.137 86.9531ZM194.306 88.7707L193.792 89.6216L194.697 90.1675L195.186 89.2311L194.306 88.7707ZM189.87 86.3084L188.961 85.9077L188.582 86.768L189.42 87.1942L189.87 86.3084ZM190.225 85.5031L190.676 84.6172L189.739 84.1411L189.316 85.1024L190.225 85.5031ZM194.712 87.9937L195.593 88.4541L196.026 87.6256L195.225 87.1427L194.712 87.9937ZM131.365 83.9111L130.962 83.0026L130.098 83.3858L130.437 84.2678L131.365 83.9111ZM136.097 82.0174L137.046 81.7231L136.739 80.732L135.762 81.0817L136.097 82.0174ZM136.359 82.8626L136.694 83.7983L137.59 83.4775L137.308 82.5684L136.359 82.8626ZM185.286 84.1843L184.902 85.1007L185.864 85.5045L186.22 84.5238L185.286 84.1843ZM180.575 82.4091L179.621 82.1319L179.355 83.0483L180.26 83.3514L180.575 82.4091ZM180.822 81.5586L181.138 80.6163L180.157 80.2874L179.868 81.2814L180.822 81.5586ZM185.588 83.3542L186.522 83.6938L186.845 82.804L185.972 82.4378L185.588 83.3542ZM140.941 80.4836L140.676 79.5257L139.751 79.7813L139.974 80.715L140.941 80.4836ZM145.872 79.3169L146.852 79.1493L146.68 78.1443L145.68 78.3419L145.872 79.3169ZM146.022 80.193L146.215 81.168L147.165 80.9803L147.002 80.0255L146.022 80.193ZM175.761 80.992L175.516 81.9552L176.51 82.2081L176.731 81.206L175.761 80.992ZM170.866 79.9394L169.883 79.7892L169.736 80.7494L170.693 80.9181L170.866 79.9394ZM171 79.0602L171.173 78.0815L170.171 77.9049L170.018 78.91L171 79.0602ZM175.952 80.125L176.922 80.3389L177.13 79.399L176.197 79.1618L175.952 80.125ZM150.868 78.5216L150.748 77.535L149.777 77.6528L149.879 78.6256L150.868 78.5216ZM155.902 78.0992L156.895 78.0588L156.854 77.0595L155.855 77.1065L155.902 78.0992ZM155.938 78.9893L155.985 79.982L156.971 79.9356L156.931 78.9488L155.938 78.9893ZM165.914 79.2551L165.815 80.2439L166.817 80.3448L166.904 79.3414L165.914 79.2551ZM160.931 78.939L159.937 78.9164L159.915 79.9063L160.905 79.9325L160.931 78.939ZM160.951 78.0485L160.977 77.055L159.98 77.0287L159.958 78.0259L160.951 78.0485ZM165.992 78.3681L166.982 78.4544L167.067 77.4775L166.091 77.3792L165.992 78.3681ZM95.9686 119.256L95.2356 118.839L94.254 120.568L94.987 120.984L95.9686 119.256ZM95.6364 120.142C96.4101 118.571 97.2458 117.007 98.1201 115.496L96.3998 114.501C95.503 116.05 94.6463 117.653 93.8531 119.265L95.6364 120.142ZM96.7081 115.825L97.4123 116.295L98.5161 114.642L97.8118 114.172L96.7081 115.825ZM97.104 114.971C96.2176 116.503 95.3707 118.088 94.5862 119.681L96.3694 120.559C97.1344 119.005 97.9604 117.46 98.8245 115.966L97.104 114.971ZM222.995 118.367C222.183 116.791 221.308 115.224 220.394 113.71L218.692 114.736C219.583 116.213 220.436 117.741 221.228 119.277L222.995 118.367ZM220.111 115.039L220.807 114.554L219.671 112.923L218.975 113.408L220.111 115.039ZM219.388 114.252C220.289 115.746 221.153 117.291 221.953 118.846L223.72 117.935C222.899 116.342 222.014 114.757 221.09 113.225L219.388 114.252ZM222.329 117.536L221.603 117.968L222.619 119.676L223.345 119.245L222.329 117.536ZM101.354 110.229L100.681 109.707L99.4632 111.278L100.136 111.799L101.354 110.229ZM100.897 111.047C101.866 109.605 102.895 108.181 103.954 106.815L102.383 105.597C101.296 106.999 100.241 108.459 99.2475 109.938L100.897 111.047ZM102.506 106.947L103.143 107.517L104.468 106.036L103.831 105.466L102.506 106.947ZM103.02 106.168C101.946 107.554 100.903 108.997 99.9199 110.46L101.57 111.569C102.528 110.143 103.544 108.736 104.591 107.386L103.02 106.168ZM217.498 109.257C216.491 107.816 215.422 106.393 214.323 105.029L212.775 106.275C213.846 107.605 214.887 108.992 215.869 110.396L217.498 109.257ZM214.226 106.38L214.853 105.797L213.499 104.341L212.872 104.924L214.226 106.38ZM213.402 105.692C214.486 107.038 215.539 108.44 216.533 109.861L218.161 108.721C217.142 107.264 216.062 105.826 214.95 104.445L213.402 105.692ZM216.723 108.517L216.06 109.053L217.308 110.6L217.971 110.065L216.723 108.517ZM107.843 102.083L107.244 101.467L105.82 102.853L106.419 103.469L107.843 102.083ZM107.274 102.821C108.418 101.537 109.618 100.279 110.842 99.0827L109.452 97.6616C108.196 98.8901 106.964 100.181 105.79 101.499L107.274 102.821ZM109.389 99.0147L109.947 99.6738L111.464 98.3888L110.905 97.7297L109.389 99.0147ZM110.011 98.3206C108.768 99.5352 107.55 100.812 106.389 102.115L107.873 103.437C109.004 102.168 110.191 100.924 111.4 99.7419L110.011 98.3206ZM210.883 101.045C209.699 99.7654 208.458 98.5139 207.195 97.3248L205.833 98.7723C207.063 99.9298 208.271 101.149 209.424 102.395L210.883 101.045ZM207.284 98.6769L207.83 98.0069L206.29 96.7502L205.744 97.4202L207.284 98.6769ZM206.379 98.1023C207.623 99.2731 208.846 100.506 210.013 101.767L211.472 100.417C210.274 99.1229 209.019 97.8572 207.742 96.6548L206.379 98.1023ZM210.017 100.413L209.428 101.041L210.879 102.399L211.468 101.771L210.017 100.413ZM115.312 94.9704L114.797 94.2717L113.197 95.4507L113.711 96.1494L115.312 94.9704ZM114.64 95.6185C115.939 94.5152 117.288 93.4473 118.652 92.4447L117.474 90.8435C116.073 91.8738 114.687 92.9707 113.353 94.1039L114.64 95.6185ZM117.225 92.1782L117.693 92.9135L119.37 91.8452L118.901 91.11L117.225 92.1782ZM117.943 91.5787C116.557 92.5975 115.186 93.682 113.868 94.8026L115.155 96.3171C116.438 95.2265 117.772 94.171 119.12 93.18L117.943 91.5787ZM203.276 93.8861C201.939 92.7938 200.549 91.7373 199.144 90.7457L197.998 92.3697C199.365 93.3341 200.718 94.3623 202.018 95.4252L203.276 93.8861ZM199.419 92.076L199.875 91.3312L198.179 90.2947L197.723 91.0395L199.419 92.076ZM198.454 91.625C199.836 92.6007 201.205 93.6408 202.52 94.716L203.778 93.177C202.427 92.0723 201.021 91.0038 199.6 90.0009L198.454 91.625ZM202.338 93.3722L201.836 94.0813L203.458 95.23L203.96 94.5209L202.338 93.3722ZM123.618 89.029L123.198 88.2607L121.454 89.2141L121.874 89.9824L123.618 89.029ZM122.856 89.578C124.282 88.6791 125.755 87.8223 127.235 87.0318L126.299 85.2786C124.777 86.0917 123.262 86.9725 121.796 87.8968L122.856 89.578ZM125.865 86.5727L126.235 87.3706L128.038 86.5356L127.669 85.7377L125.865 86.5727ZM126.668 86.0764C125.163 86.8802 123.665 87.7512 122.216 88.665L123.276 90.3463C124.686 89.4578 126.142 88.6108 127.605 87.8298L126.668 86.0764ZM194.819 87.9198C193.352 87.0343 191.838 86.1943 190.321 85.4225L189.42 87.1942C190.894 87.9442 192.366 88.7608 193.792 89.6216L194.819 87.9198ZM190.78 86.709L191.135 85.9038L189.316 85.1024L188.961 85.9077L190.78 86.709ZM189.775 86.389C191.266 87.1476 192.755 87.9741 194.199 88.8447L195.225 87.1427C193.741 86.2475 192.211 85.3978 190.676 84.6172L189.775 86.389ZM193.831 87.5333L193.425 88.3102L195.186 89.2311L195.593 88.4541L193.831 87.5333ZM132.609 84.3779L132.293 83.5544L130.437 84.2678L130.754 85.0913L132.609 84.3779ZM131.768 84.8195C133.295 84.1421 134.865 83.5141 136.432 82.953L135.762 81.0817C134.149 81.6592 132.534 82.3054 130.962 83.0026L131.768 84.8195ZM135.148 82.3116L135.41 83.1569L137.308 82.5684L137.046 81.7231L135.148 82.3116ZM136.024 81.927C134.429 82.4979 132.833 83.1367 131.279 83.8262L132.085 85.6431C133.594 84.9734 135.145 84.3528 136.694 83.7983L136.024 81.927ZM185.671 83.2679C184.103 82.61 182.495 82.0043 180.891 81.4668L180.26 83.3514C181.817 83.8733 183.379 84.4617 184.902 85.1007L185.671 83.2679ZM181.53 82.6863L181.777 81.8358L179.868 81.2814L179.621 82.1319L181.53 82.6863ZM180.507 82.501C182.082 83.0289 183.663 83.6243 185.203 84.2707L185.972 82.4378C184.387 81.7725 182.76 81.1598 181.138 80.6163L180.507 82.501ZM184.654 83.0147L184.352 83.8448L186.22 84.5238L186.522 83.6938L184.654 83.0147ZM142.114 81.1152L141.907 80.2523L139.974 80.715L140.181 81.5779L142.114 81.1152ZM141.205 81.4416C142.804 80.9998 144.44 80.6129 146.065 80.2919L145.68 78.3419C144.006 78.6725 142.322 79.0708 140.676 79.5257L141.205 81.4416ZM144.893 79.4844L145.043 80.3606L147.002 80.0255L146.852 79.1493L144.893 79.4844ZM145.83 79.2181C144.175 79.545 142.511 79.9387 140.882 80.3886L141.412 82.3045C142.992 81.8677 144.608 81.4854 146.215 81.168L145.83 79.2181ZM176.006 80.0288C174.369 79.6127 172.698 79.2534 171.038 78.9607L170.693 80.9181C172.305 81.2023 173.927 81.5512 175.516 81.9552L176.006 80.0288ZM171.848 80.0896L171.983 79.2104L170.018 78.91L169.883 79.7892L171.848 80.0896ZM170.828 80.0389C172.458 80.3263 174.1 80.6794 175.707 81.0881L176.197 79.1618C174.542 78.7409 172.852 78.3775 171.173 78.0815L170.828 80.0389ZM174.981 79.911L174.79 80.778L176.731 81.206L176.922 80.3389L174.981 79.911ZM151.949 79.3029L151.856 78.4176L149.879 78.6256L149.972 79.5109L151.949 79.3029ZM150.987 79.5082C152.624 79.3098 154.293 79.1697 155.949 79.0919L155.855 77.1065C154.151 77.1866 152.433 77.3306 150.748 77.535L150.987 79.5082ZM154.909 78.1396L154.945 79.0297L156.931 78.9488L156.895 78.0588L154.909 78.1396ZM155.892 77.9965C154.206 78.0758 152.507 78.2183 150.841 78.4203L151.08 80.3935C152.698 80.1975 154.348 80.059 155.985 79.982L155.892 77.9965ZM166.014 78.2663C164.343 78.0981 162.642 77.9901 160.957 77.9456L160.905 79.9325C162.54 79.9758 164.193 80.0806 165.815 80.2439L166.014 78.2663ZM161.924 78.9616L161.945 78.0711L159.958 78.0259L159.937 78.9164L161.924 78.9616ZM160.925 79.042C162.58 79.0857 164.251 79.1916 165.892 79.3569L166.091 77.3792C164.402 77.2091 162.681 77.1001 160.977 77.055L160.925 79.042ZM165.002 78.2817L164.924 79.1688L166.904 79.3414L166.982 78.4544L165.002 78.2817Z" fill="#2D9CDB" mask="url(#path-14-inside-4)"/>
<path d="M225.393 126.057C225.072 125.243 224.734 124.426 224.388 123.629L225.14 123.253C225.49 124.059 225.832 124.886 226.157 125.709L225.393 126.057Z" fill="#6C63FF"/>
<path d="M132.445 119.291C131.461 119.291 130.499 118.978 129.68 118.391C128.862 117.803 128.224 116.968 127.847 115.991C127.471 115.015 127.372 113.94 127.564 112.903C127.756 111.866 128.23 110.913 128.926 110.166C129.622 109.418 130.509 108.909 131.474 108.703C132.44 108.496 133.44 108.602 134.349 109.007C135.259 109.411 136.036 110.097 136.583 110.976C137.13 111.855 137.421 112.888 137.421 113.946C137.42 115.363 136.895 116.722 135.962 117.724C135.029 118.726 133.764 119.29 132.445 119.291V119.291ZM132.445 109.491C131.625 109.491 130.823 109.752 130.141 110.242C129.459 110.731 128.928 111.427 128.614 112.241C128.3 113.055 128.218 113.951 128.378 114.815C128.538 115.679 128.933 116.473 129.513 117.096C130.093 117.719 130.832 118.143 131.636 118.315C132.44 118.487 133.274 118.399 134.032 118.061C134.79 117.724 135.438 117.153 135.893 116.421C136.349 115.688 136.592 114.827 136.592 113.946C136.591 112.765 136.154 111.632 135.376 110.797C134.599 109.962 133.545 109.492 132.445 109.491Z" fill="#F0F0F0"/>
<path d="M27.5254 239.125C26.5411 239.125 25.579 238.812 24.7606 238.224C23.9423 237.637 23.3044 236.802 22.9278 235.825C22.5511 234.848 22.4526 233.774 22.6446 232.737C22.8366 231.7 23.3105 230.747 24.0065 230C24.7025 229.252 25.5892 228.743 26.5545 228.537C27.5199 228.33 28.5205 228.436 29.4298 228.841C30.3391 229.245 31.1163 229.931 31.6631 230.81C32.21 231.689 32.5018 232.722 32.5018 233.78C32.5003 235.197 31.9755 236.556 31.0426 237.558C30.1097 238.56 28.8448 239.124 27.5254 239.125ZM27.5254 229.325C26.7052 229.325 25.9034 229.586 25.2214 230.076C24.5394 230.565 24.0079 231.261 23.694 232.075C23.3802 232.889 23.298 233.784 23.458 234.649C23.6181 235.513 24.013 236.307 24.593 236.93C25.173 237.553 25.9119 237.977 26.7163 238.149C27.5208 238.321 28.3546 238.232 29.1124 237.895C29.8701 237.558 30.5178 236.987 30.9735 236.254C31.4292 235.522 31.6724 234.661 31.6724 233.78C31.6712 232.598 31.2339 231.466 30.4564 230.631C29.679 229.796 28.6249 229.326 27.5254 229.325V229.325Z" fill="#F0F0F0"/>
<path d="M225.119 266.019L219.535 259.588L225.522 253.589L231.106 260.02L225.119 266.019ZM220.425 259.621L225.15 265.063L230.216 259.987L225.491 254.546L220.425 259.621Z" fill="#F0F0F0"/>
<g clip-path="url(#clip0)">
<path d="M46.8374 144.791L29.2692 136.135C29.0338 136.019 28.777 136.019 28.5416 136.135L10.9735 144.791C10.5367 145.006 10.2444 145.583 10.2438 146.229C10.2432 146.876 10.5346 147.453 10.971 147.67L28.5391 156.392C28.6576 156.451 28.7815 156.48 28.9054 156.48C29.0293 156.48 29.1532 156.451 29.2716 156.392L46.8398 147.67C47.2762 147.453 47.5675 146.876 47.567 146.229C47.5664 145.583 47.2741 145.006 46.8374 144.791V144.791Z" fill="#2D9CDB"/>
<path d="M44.9407 165.173V151.854L42.7538 152.94V165.173C42.0951 165.703 41.6512 166.695 41.6512 167.832C41.6512 168.97 42.0951 169.962 42.7538 170.492V177.996C42.7538 178.839 43.2434 179.523 43.8473 179.523C44.4511 179.523 44.9407 178.839 44.9407 177.996V170.492C45.5994 169.962 46.0433 168.97 46.0433 167.833C46.0433 166.695 45.5995 165.703 44.9407 165.173Z" fill="#2D9CDB"/>
<path d="M28.9054 159.534C28.53 159.534 28.1604 159.445 27.8066 159.269L17.9303 154.366V161.086C17.9303 162.73 19.1584 164.12 21.5805 165.218C23.6916 166.175 26.293 166.702 28.9054 166.702C31.5177 166.702 34.119 166.175 36.2303 165.218C38.6523 164.12 39.8804 162.73 39.8804 161.086V154.366L30.0042 159.269C29.6504 159.445 29.2807 159.534 28.9054 159.534V159.534Z" fill="#2D9CDB"/>
</g>
<rect x="10.7407" y="132.222" width="36.3294" height="51.1272" stroke="#E0E0E0" stroke-width="0.993827"/>
<g clip-path="url(#clip1)">
<path d="M105.161 137.262C103.972 135.798 102.039 135.822 100.875 137.316L94.5035 145.494L78.9546 139.156L75.6906 143.177L88.6511 153.006L82.0931 161.424L77.8875 160.573L74.9373 164.207L81.1202 166.875L83.2857 174.491L86.2359 170.857L85.5455 165.676L92.3792 157.598L100.359 173.563L103.623 169.542L98.4777 150.389L105.117 142.541C106.33 141.107 106.35 138.726 105.161 137.262Z" fill="#828282"/>
</g>
<g clip-path="url(#clip2)">
<path d="M302.656 140.769C299.209 137.235 294.627 135.289 289.753 135.289C284.879 135.289 280.297 137.235 276.851 140.769C273.404 144.303 271.506 149.001 271.506 153.999C271.506 158.996 273.404 163.695 276.851 167.229C280.297 170.763 284.879 172.709 289.753 172.709C294.627 172.709 299.209 170.763 302.656 167.229C306.102 163.695 308 158.996 308 153.999C308 149.001 306.102 144.303 302.656 140.769ZM289.753 140.405C291.915 140.405 293.673 142.208 293.673 144.424C293.673 146.641 291.915 148.444 289.753 148.444C287.591 148.444 285.833 146.641 285.833 144.424C285.833 142.208 287.591 140.405 289.753 140.405ZM294.742 165.985H284.764V163.792H286.902V152.829H284.764V150.637H292.604V163.792H294.742V165.985Z" fill="#EB5757"/>
</g>
<path d="M230.042 136.583H232.297V140.467H230.042V136.583Z" fill="#219653"/>
<path d="M236.807 136.583H239.062V140.467H236.807V136.583Z" fill="#219653"/>
<path d="M226.66 136.583H228.915V140.467H226.66V136.583Z" fill="#219653"/>
<path d="M233.425 136.583H235.68V140.467H233.425V136.583Z" fill="#219653"/>
<path d="M240.19 136.583H242.445V140.467H240.19V136.583Z" fill="#219653"/>
<path d="M218.768 165.066C220.001 165.066 221.154 164.679 222.15 164.015V157.547C222.15 155.836 221.318 154.315 220.01 153.55L218.768 154.977L216.398 152.255C215.09 153.021 214.258 154.542 214.258 156.253L214.257 163.071C214.908 163.743 215.672 164.27 216.513 164.613V156.404L215.697 155.935L216.202 154.777L217.64 155.603V164.95C218.008 165.02 218.383 165.066 218.768 165.066V165.066Z" fill="#219653"/>
<path d="M214.746 149.142L215.949 150.177V148.124C215.949 147.951 215.89 147.788 215.784 147.666L215.317 147.13C214.997 146.764 214.822 146.276 214.822 145.757V145.646C214.822 144.802 215.293 144.082 215.949 143.815V143.057C215.949 141.986 216.708 141.115 217.64 141.115H220.459H221.586C222.519 141.115 223.278 140.243 223.278 139.173C223.278 138.102 222.519 137.231 221.586 137.231C221.358 137.231 221.133 137.284 220.927 137.384L221.27 137.876L218.016 137.878C215.012 137.878 212.567 140.685 212.567 144.136C212.567 146.095 213.381 147.966 214.746 149.142V149.142Z" fill="#219653"/>
<path d="M221.289 142.409H220.459H217.64C217.329 142.409 217.077 142.7 217.077 143.057V144.999H216.513C216.202 144.999 215.949 145.289 215.949 145.646V145.757C215.949 145.93 216.008 146.093 216.114 146.215L216.581 146.751C216.9 147.118 217.077 147.606 217.077 148.125V151.204L218.768 153.146L219.331 152.499V150.177H219.662C220.025 150.177 220.367 150.015 220.624 149.719C220.881 149.425 221.023 149.032 221.023 148.615V147.769L222.702 147.126C222.585 144.908 221.661 143.067 221.289 142.409V142.409ZM220.459 144.999C220.148 144.999 219.895 144.709 219.895 144.351C219.895 143.994 220.148 143.704 220.459 143.704C220.77 143.704 221.023 143.994 221.023 144.351C221.023 144.709 220.77 144.999 220.459 144.999Z" fill="#219653"/>
<path d="M224.527 166.88L231.394 174.766C232.77 174.641 233.871 173.377 233.98 171.797L227.112 163.911C226.413 165.071 225.537 166.077 224.527 166.88Z" fill="#219653"/>
<path d="M227.788 157.298C227.788 153.558 226.041 150.136 223.218 148.293L222.149 148.702C222.146 148.834 222.126 148.96 222.107 149.088C224.888 150.574 226.66 153.735 226.66 157.298C226.66 162.296 223.12 166.361 218.768 166.361C214.416 166.361 210.875 162.296 210.875 157.298C210.875 154.432 212.025 151.803 213.984 150.094C213.681 149.823 213.404 149.52 213.15 149.197C211.011 151.156 209.748 154.141 209.748 157.298C209.748 163.009 213.794 167.656 218.768 167.656C223.741 167.656 227.788 163.009 227.788 157.298Z" fill="#219653"/>
<path d="M234.552 169.598H242.445V160.535H234.552V169.598ZM237.206 164.609L237.935 165.446L240.355 162.667L241.152 163.582L237.935 167.276L236.409 165.524L237.206 164.609Z" fill="#219653"/>
<path d="M234.552 159.24H242.445V150.177H234.552V159.24ZM237.206 154.251L237.935 155.088L240.355 152.309L241.152 153.224L237.935 156.919L236.409 155.166L237.206 154.251Z" fill="#219653"/>
<path d="M228.915 142.409H239.062V143.704H228.915V142.409Z" fill="#219653"/>
<path d="M228.915 144.999H239.062V146.293H228.915V144.999Z" fill="#219653"/>
<path d="M233.425 147.588H234.552V148.883H233.425V147.588Z" fill="#219653"/>
<path d="M228.915 147.588H230.042V148.883H228.915V147.588Z" fill="#219653"/>
<path d="M231.17 147.588H232.297V148.883H231.17V147.588Z" fill="#219653"/>
<path d="M235.68 147.588H236.807V148.883H235.68V147.588Z" fill="#219653"/>
<path d="M237.935 147.588H239.062V148.883H237.935V147.588Z" fill="#219653"/>
<ellipse cx="125.628" cy="266.811" rx="34.9777" ry="34.2045" fill="url(#paint7_linear)"/>
<path d="M101.544 57.0938H87.2469L84.0359 66H79.3953L92.4266 31.875H96.3641L109.419 66H104.802L101.544 57.0938ZM88.6062 53.3906H100.208L94.3953 37.4297L88.6062 53.3906Z" fill="#FC0000"/>
<path d="M127.405 55.4766H120.866V66H116.53V38.6953H126.514C129.842 38.6953 132.405 39.4219 134.202 40.875C136.014 42.3281 136.92 44.3828 136.92 47.0391C136.92 50.6016 135.084 53.0781 131.412 54.4688L138.162 65.7656V66H133.522L127.405 55.4766ZM120.866 51.9375H126.631C128.459 51.9375 129.905 51.5156 130.967 50.6719C132.045 49.8125 132.584 48.6562 132.584 47.2031C132.584 45.6406 132.061 44.4297 131.014 43.5703C129.967 42.7109 128.459 42.2812 126.491 42.2812H120.866V51.9375ZM161.469 53.6719H149V62.4609H163.508V66H144.664V38.6953H163.367V42.2812H149V50.1094H161.469V53.6719ZM193.283 66H188.97L174.791 45.4688V66H170.455V38.6953H174.791L188.97 59.25V38.6953H193.283V66ZM218.605 59.4609H206.417L203.839 66H199.409L210.636 38.6953H214.527L225.589 66H221.183L218.605 59.4609ZM207.823 55.9219H217.222L212.558 43.9922L207.823 55.9219Z" fill="black"/>
<path d="M31.3448 54H91.0493H289.567" stroke="#F30000" stroke-width="7"/>
<defs>
<linearGradient id="paint0_linear" x1="218" y1="0" x2="218" y2="362" gradientUnits="userSpaceOnUse">
<stop offset="0.078125" stop-color="#0DBE57" stop-opacity="0"/>
<stop offset="0.703125" stop-color="#25E775" stop-opacity="0"/>
</linearGradient>
<linearGradient id="paint1_linear" x1="37.6141" y1="192.735" x2="37.6141" y2="250.647" gradientUnits="userSpaceOnUse">
<stop offset="0.348958" stop-color="#A03EA9"/>
<stop offset="0.682292" stop-color="#51EB1B" stop-opacity="0"/>
</linearGradient>
<linearGradient id="paint2_linear" x1="210.13" y1="162.463" x2="210.13" y2="280.96" gradientUnits="userSpaceOnUse">
<stop offset="0.348958" stop-color="#A03EA9"/>
<stop offset="0.682292" stop-color="#51EB1B" stop-opacity="0"/>
</linearGradient>
<linearGradient id="paint3_linear" x1="159.171" y1="11" x2="159.171" y2="118.589" gradientUnits="userSpaceOnUse">
<stop stop-color="#433ADA"/>
<stop offset="0.1875" stop-color="#0F03CB" stop-opacity="0.8125"/>
<stop offset="0.40625" stop-color="#0F03CB" stop-opacity="0.59375"/>
<stop offset="0.65625" stop-color="#27EADE" stop-opacity="0.34375"/>
<stop offset="1" stop-color="#0F03CB" stop-opacity="0"/>
</linearGradient>
<linearGradient id="paint4_linear" x1="159.072" y1="189.088" x2="159.072" y2="301.432" gradientUnits="userSpaceOnUse">
<stop stop-color="#433ADA"/>
<stop offset="0.1875" stop-color="#0F03CB" stop-opacity="0.8125"/>
<stop offset="0.40625" stop-color="#0F03CB" stop-opacity="0.59375"/>
<stop offset="0.65625" stop-color="#27EADE" stop-opacity="0.34375"/>
<stop offset="1" stop-color="#0F03CB" stop-opacity="0"/>
</linearGradient>
<linearGradient id="paint5_linear" x1="158.916" y1="188.546" x2="158.916" y2="234.387" gradientUnits="userSpaceOnUse">
<stop stop-color="#433ADA"/>
<stop offset="0.1875" stop-color="#0F03CB" stop-opacity="0.8125"/>
<stop offset="0.40625" stop-color="#0F03CB" stop-opacity="0.59375"/>
<stop offset="0.65625" stop-color="#27EADE" stop-opacity="0.34375"/>
<stop offset="1" stop-color="#0F03CB" stop-opacity="0"/>
</linearGradient>
<linearGradient id="paint6_linear" x1="158.791" y1="78.0485" x2="158.791" y2="120.12" gradientUnits="userSpaceOnUse">
<stop stop-color="#433ADA"/>
<stop offset="0.1875" stop-color="#0F03CB" stop-opacity="0.8125"/>
<stop offset="0.40625" stop-color="#0F03CB" stop-opacity="0.59375"/>
<stop offset="0.65625" stop-color="#27EADE" stop-opacity="0.34375"/>
<stop offset="1" stop-color="#0F03CB" stop-opacity="0"/>
</linearGradient>
<linearGradient id="paint7_linear" x1="125.628" y1="232.607" x2="125.628" y2="301.016" gradientUnits="userSpaceOnUse">
<stop offset="0.118051" stop-color="#51D1BA"/>
<stop offset="0.651042" stop-color="#4FAF81" stop-opacity="0.395667"/>
<stop offset="1" stop-color="#A70000" stop-opacity="0"/>
</linearGradient>
<clipPath id="clip0">
</clipPath>
<clipPath id="clip1">
<rect width="31.1027" height="38.3112" fill="white" transform="translate(74.9373 136.18)"/>
</clipPath>
<clipPath id="clip2">
<rect width="36.4938" height="37.4202" fill="white" transform="translate(271.506 135.289)"/>
</clipPath>
</defs>
</svg>
