<svg width="926" height="771" viewBox="0 0 926 771" fill="none" xmlns="http://www.w3.org/2000/svg">
<g clip-path="url(#clip0)">
<path d="M272.71 732.18C312.933 732.18 345.54 699.573 345.54 659.35C345.54 619.127 312.933 586.52 272.71 586.52C232.487 586.52 199.88 619.127 199.88 659.35C199.88 699.573 232.487 732.18 272.71 732.18Z" fill="url(#paint0_linear)"/>
<path d="M272.35 766.41C316.395 766.41 352.1 730.705 352.1 686.66C352.1 642.615 316.395 606.91 272.35 606.91C228.305 606.91 192.6 642.615 192.6 686.66C192.6 730.705 228.305 766.41 272.35 766.41Z" fill="url(#paint1_linear)"/>
<path d="M596.45 766.41C640.495 766.41 676.2 730.705 676.2 686.66C676.2 642.615 640.495 606.91 596.45 606.91C552.405 606.91 516.7 642.615 516.7 686.66C516.7 730.705 552.405 766.41 596.45 766.41Z" fill="url(#paint2_linear)"/>
<path d="M592.44 766.41C632.663 766.41 665.27 733.803 665.27 693.58C665.27 653.357 632.663 620.75 592.44 620.75C552.217 620.75 519.61 653.357 519.61 693.58C519.61 733.803 552.217 766.41 592.44 766.41Z" fill="url(#paint3_linear)"/>
<path d="M510.14 707.42C510.152 718.937 507.427 730.292 502.19 740.55C496.954 750.808 489.355 759.674 480.02 766.42H394.59C384.478 759.112 376.413 749.329 371.166 738.01C365.919 726.691 363.667 714.214 364.625 701.775C365.583 689.336 369.719 677.351 376.637 666.968C383.555 656.586 393.023 648.154 404.135 642.48C415.246 636.806 427.628 634.08 440.095 634.564C452.561 635.048 464.695 638.724 475.333 645.242C485.972 651.76 494.758 660.9 500.851 671.787C506.944 682.675 510.139 694.944 510.13 707.42H510.14Z" fill="url(#paint4_linear)"/>
<path d="M600.46 759.86C600.46 762.04 600.363 764.197 600.17 766.33C600.178 766.36 600.178 766.39 600.17 766.42H455.09C454.89 764.26 454.79 762.07 454.79 759.87C454.778 742.442 461.021 725.589 472.384 712.376C483.748 699.162 499.477 690.466 516.71 687.87C520.311 687.328 523.948 687.054 527.59 687.05C529.45 687.05 531.3 687.12 533.13 687.25C546.184 688.248 558.728 692.744 569.444 700.265C580.16 707.785 588.653 718.053 594.03 729.99C594.33 730.65 594.62 731.32 594.89 731.99C598.568 740.821 600.461 750.293 600.46 759.86V759.86Z" fill="url(#paint5_linear)"/>
<path d="M738.11 745.29C738.118 752.445 737.067 759.563 734.99 766.41H595.59C592.22 755.211 591.579 743.368 593.72 731.87C593.84 731.24 593.96 730.6 594.1 729.98C597.609 713.697 606.592 699.108 619.551 688.644C632.51 678.179 648.663 672.471 665.32 672.47C667.61 672.47 669.86 672.57 672.09 672.79C673.09 672.87 674.09 672.99 675.09 673.12C692.546 675.495 708.549 684.116 720.136 697.385C731.723 710.654 738.109 727.674 738.11 745.29V745.29Z" fill="url(#paint6_linear)"/>
<path d="M290.72 766.42C290.96 765.66 291.17 764.9 291.38 764.13C294.695 751.73 294.677 738.674 291.327 726.284C287.977 713.893 281.414 702.607 272.302 693.567C263.19 684.527 251.852 678.054 239.435 674.802C227.019 671.551 213.963 671.636 201.59 675.05C198.693 675.845 195.85 676.827 193.08 677.99C176.401 684.929 162.892 697.814 155.172 714.147C147.453 730.48 146.073 749.097 151.3 766.39H290.72V766.42Z" fill="url(#paint7_linear)"/>
<g opacity="0.7">
<path opacity="0.7" d="M710.43 616.63C717.809 616.63 723.79 610.649 723.79 603.27C723.79 595.891 717.809 589.91 710.43 589.91C703.051 589.91 697.07 595.891 697.07 603.27C697.07 610.649 703.051 616.63 710.43 616.63Z" fill="url(#paint8_linear)"/>
</g>
<path d="M710.43 615.65C717.267 615.65 722.81 610.107 722.81 603.27C722.81 596.433 717.267 590.89 710.43 590.89C703.593 590.89 698.05 596.433 698.05 603.27C698.05 610.107 703.593 615.65 710.43 615.65Z" fill="url(#paint9_linear)"/>
<g opacity="0.7">
<path opacity="0.7" d="M771.61 746.75C779.657 746.75 786.18 740.227 786.18 732.18C786.18 724.133 779.657 717.61 771.61 717.61C763.563 717.61 757.04 724.133 757.04 732.18C757.04 740.227 763.563 746.75 771.61 746.75Z" fill="url(#paint10_linear)"/>
</g>
<path d="M771.61 746.02C779.254 746.02 785.45 739.824 785.45 732.18C785.45 724.536 779.254 718.34 771.61 718.34C763.966 718.34 757.77 724.536 757.77 732.18C757.77 739.824 763.966 746.02 771.61 746.02Z" fill="url(#paint11_linear)"/>
<g opacity="0.7">
<path opacity="0.7" d="M148.17 665.16C157.012 665.16 164.18 657.992 164.18 649.15C164.18 640.308 157.012 633.14 148.17 633.14C139.328 633.14 132.16 640.308 132.16 649.15C132.16 657.992 139.328 665.16 148.17 665.16Z" fill="url(#paint12_linear)"/>
</g>
<path d="M148.17 664.44C156.614 664.44 163.46 657.594 163.46 649.15C163.46 640.706 156.614 633.86 148.17 633.86C139.726 633.86 132.88 640.706 132.88 649.15C132.88 657.594 139.726 664.44 148.17 664.44Z" fill="url(#paint13_linear)"/>
<g opacity="0.4">
<path opacity="0.4" d="M751.32 17.47C747.771 12.7806 743.325 8.84418 738.24 5.88999C732.407 2.53772 725.881 0.570498 719.166 0.140102C712.452 -0.290294 705.729 0.827653 699.515 3.40767C693.301 5.98769 687.763 9.96081 683.328 15.0204C678.894 20.0801 675.681 26.0909 673.937 32.5892C672.194 39.0875 671.967 45.8995 673.273 52.4995C674.58 59.0995 677.385 65.3111 681.473 70.6549C685.561 75.9988 690.822 80.3321 696.85 83.3204C702.878 86.3086 709.512 87.8721 716.24 87.89C717.17 87.89 718.1 87.89 719.02 87.8C726.936 87.3006 734.569 84.6666 741.108 80.1775C747.646 75.6885 752.847 69.5121 756.158 62.3045C759.468 55.0968 760.765 47.1271 759.91 39.2418C759.054 31.3565 756.079 23.8501 751.3 17.52L751.32 17.47Z" fill="url(#paint14_linear)"/>
</g>
<path opacity="0.2" d="M757.77 43.92C757.771 54.4745 753.751 64.6329 746.529 72.3291C739.306 80.0253 729.423 84.6813 718.89 85.35C718.02 85.41 717.14 85.44 716.26 85.44C709.895 85.4362 703.616 83.9687 697.908 81.1509C692.201 78.3332 687.218 74.2406 683.345 69.1896C679.471 64.1386 676.812 58.2645 675.571 52.0215C674.33 45.7784 674.542 39.3337 676.189 33.1855C677.837 27.0373 680.876 21.3503 685.073 16.5643C689.269 11.7782 694.509 8.02128 700.389 5.58392C706.269 3.14656 712.631 2.09406 718.983 2.50781C725.334 2.92155 731.506 4.79045 737.02 7.97001V7.97001C741.829 10.7629 746.034 14.4853 749.39 18.92V18.92C754.84 26.1139 757.783 34.8949 757.77 43.92V43.92Z" fill="#6C63FF"/>
<path opacity="0.05" d="M706.04 17.59C703.896 18.5151 701.826 19.605 699.85 20.85C698.53 21.5819 697.398 22.6085 696.54 23.85C696.121 24.4727 695.891 25.2029 695.877 25.9532C695.862 26.7035 696.065 27.442 696.46 28.08C697.46 29.46 699.46 29.68 701.13 29.77C702.665 30.096 704.259 30.0085 705.749 29.5166C707.239 29.0246 708.571 28.1458 709.61 26.97L713.18 23.73C714.42 22.61 715.78 21.06 715.24 19.48C714.83 18.27 713.47 17.68 712.24 17.48C709.172 16.8761 705.988 17.4358 703.31 19.05" fill="#F55F44"/>
<path opacity="0.05" d="M691.13 62.49C692.334 62.49 693.31 61.514 693.31 60.31C693.31 59.106 692.334 58.13 691.13 58.13C689.926 58.13 688.95 59.106 688.95 60.31C688.95 61.514 689.926 62.49 691.13 62.49Z" fill="#F55F44"/>
<path opacity="0.05" d="M735.56 54.48C739.984 54.48 743.57 50.8938 743.57 46.47C743.57 42.0462 739.984 38.46 735.56 38.46C731.136 38.46 727.55 42.0462 727.55 46.47C727.55 50.8938 731.136 54.48 735.56 54.48Z" fill="#F55F44"/>
<path opacity="0.05" d="M749.4 18.91C749.368 21.003 748.736 23.0428 747.579 24.787C746.422 26.5313 744.788 27.9066 742.872 28.7494C740.956 29.5922 738.838 29.8671 736.771 29.5415C734.703 29.2158 732.772 28.3033 731.208 26.9123C729.644 25.5213 728.512 23.7105 727.947 21.695C727.382 19.6795 727.408 17.5441 728.021 15.5428C728.634 13.5414 729.809 11.7582 731.406 10.4051C733.003 9.05203 734.955 8.18602 737.03 7.91V7.91C741.844 10.7176 746.049 14.4572 749.4 18.91V18.91Z" fill="#F55F44"/>
<path opacity="0.05" d="M750.2 67.83C746.629 72.9113 741.961 77.1243 736.541 80.157C731.121 83.1897 725.089 84.9645 718.89 85.35C718.84 84.78 718.81 84.2 718.81 83.62C718.811 79.9763 719.825 76.4047 721.737 73.3032C723.65 70.2018 726.386 67.6925 729.641 66.0551C732.896 64.4177 736.542 63.7167 740.172 64.0301C743.802 64.3434 747.274 65.659 750.2 67.83V67.83Z" fill="#F55F44"/>
<path opacity="0.25" d="M722.81 349.82C725.627 349.82 727.91 347.537 727.91 344.72C727.91 341.903 725.627 339.62 722.81 339.62C719.993 339.62 717.71 341.903 717.71 344.72C717.71 347.537 719.993 349.82 722.81 349.82Z" fill="#535461"/>
<path opacity="0.25" d="M42.81 483.82C45.6267 483.82 47.91 481.537 47.91 478.72C47.91 475.903 45.6267 473.62 42.81 473.62C39.9934 473.62 37.71 475.903 37.71 478.72C37.71 481.537 39.9934 483.82 42.81 483.82Z" fill="#535461"/>
<path opacity="0.25" d="M919.81 512.82C922.627 512.82 924.91 510.537 924.91 507.72C924.91 504.903 922.627 502.62 919.81 502.62C916.993 502.62 914.71 504.903 914.71 507.72C914.71 510.537 916.993 512.82 919.81 512.82Z" fill="#535461"/>
<path opacity="0.25" d="M288.73 271.16C291.547 271.16 293.83 268.877 293.83 266.06C293.83 263.243 291.547 260.96 288.73 260.96C285.913 260.96 283.63 263.243 283.63 266.06C283.63 268.877 285.913 271.16 288.73 271.16Z" fill="#535461"/>
<path opacity="0.25" d="M271.98 153.9C274.797 153.9 277.08 151.617 277.08 148.8C277.08 145.983 274.797 143.7 271.98 143.7C269.163 143.7 266.88 145.983 266.88 148.8C266.88 151.617 269.163 153.9 271.98 153.9Z" fill="#535461"/>
<path opacity="0.25" d="M127.77 386.23C130.587 386.23 132.87 383.947 132.87 381.13C132.87 378.313 130.587 376.03 127.77 376.03C124.953 376.03 122.67 378.313 122.67 381.13C122.67 383.947 124.953 386.23 127.77 386.23Z" fill="#535461"/>
<path opacity="0.25" d="M849.18 387.12H844.64V382.59H842.79V387.12H838.25V388.98H842.79V393.51H844.64V388.98H849.18V387.12Z" fill="#535461"/>
<path opacity="0.25" d="M925.18 230.12H920.64V225.59H918.79V230.12H914.25V231.98H918.79V236.51H920.64V231.98H925.18V230.12Z" fill="#535461"/>
<path opacity="0.25" d="M601.55 142.41H597.01V137.87H595.16V142.41H590.62V144.26H595.16V148.8H597.01V144.26H601.55V142.41Z" fill="#535461"/>
<path opacity="0.25" d="M799.65 361.63H795.11V357.1H793.26V361.63H788.73V363.49H793.26V368.02H795.11V363.49H799.65V361.63Z" fill="#535461"/>
<path opacity="0.25" d="M633.59 512.39H629.06V507.86H627.21V512.39H622.67V514.25H627.21V518.78H629.06V514.25H633.59V512.39Z" fill="#535461"/>
<path opacity="0.25" d="M168.93 201.4H164.39V196.87H162.54V201.4H158V203.25H162.54V207.79H164.39V203.25H168.93V201.4Z" fill="#535461"/>
<path opacity="0.25" d="M10.93 260.4H6.39V255.87H4.54V260.4H0V262.25H4.54V266.79H6.39V262.25H10.93V260.4Z" fill="#535461"/>
<path opacity="0.25" d="M231.56 446.12H227.02V441.58H225.17V446.12H220.64V447.97H225.17V452.51H227.02V447.97H231.56V446.12Z" fill="#535461"/>
<path d="M771.61 746.02C779.254 746.02 785.45 739.824 785.45 732.18C785.45 724.536 779.254 718.34 771.61 718.34C763.966 718.34 757.77 724.536 757.77 732.18C757.77 739.824 763.966 746.02 771.61 746.02Z" fill="url(#paint15_linear)"/>
<g opacity="0.4">
<path opacity="0.4" d="M268.96 348.32C267.27 346.085 265.152 344.208 262.73 342.8C259.952 341.183 256.838 340.228 253.631 340.009C250.424 339.79 247.209 340.313 244.237 341.537C241.264 342.762 238.614 344.655 236.492 347.07C234.37 349.485 232.833 352.356 232 355.461C231.167 358.566 231.061 361.821 231.69 364.973C232.319 368.126 233.666 371.091 235.627 373.639C237.588 376.186 240.109 378.248 242.995 379.663C245.882 381.079 249.055 381.81 252.27 381.8C252.71 381.8 253.16 381.8 253.59 381.8C257.358 381.559 260.991 380.303 264.103 378.164C267.215 376.025 269.69 373.084 271.266 369.653C272.842 366.222 273.459 362.428 273.053 358.673C272.647 354.919 271.233 351.345 268.96 348.33V348.32Z" fill="url(#paint16_linear)"/>
</g>
<path opacity="0.2" d="M272.03 360.92C272.03 365.947 270.115 370.785 266.675 374.45C263.234 378.115 258.527 380.332 253.51 380.65C253.1 380.65 252.68 380.65 252.26 380.65C249.229 380.647 246.24 379.947 243.522 378.604C240.805 377.262 238.433 375.312 236.589 372.907C234.745 370.501 233.479 367.704 232.889 364.731C232.298 361.758 232.399 358.689 233.184 355.762C233.969 352.834 235.416 350.126 237.414 347.847C239.412 345.568 241.907 343.779 244.707 342.618C247.507 341.457 250.536 340.955 253.56 341.151C256.585 341.348 259.524 342.237 262.15 343.75V343.75C264.439 345.08 266.441 346.851 268.04 348.96V348.96C270.646 352.401 272.048 356.604 272.03 360.92V360.92Z" fill="#6C63FF"/>
<path opacity="0.1" d="M247.39 348.38C246.351 348.817 245.348 349.336 244.39 349.93C243.762 350.273 243.222 350.755 242.81 351.34C242.62 351.639 242.518 351.986 242.518 352.34C242.518 352.694 242.62 353.041 242.81 353.34C243.101 353.625 243.45 353.844 243.833 353.982C244.216 354.12 244.624 354.174 245.03 354.14C245.755 354.288 246.506 354.244 247.208 354.01C247.91 353.777 248.538 353.363 249.03 352.81L250.73 351.27C251.32 350.73 251.97 350 251.73 349.27C251.596 348.994 251.393 348.757 251.141 348.582C250.889 348.407 250.596 348.299 250.29 348.27C248.829 347.984 247.315 348.252 246.04 349.02" fill="#F55F44"/>
<path opacity="0.1" d="M240.29 369.76C240.864 369.76 241.33 369.294 241.33 368.72C241.33 368.146 240.864 367.68 240.29 367.68C239.716 367.68 239.25 368.146 239.25 368.72C239.25 369.294 239.716 369.76 240.29 369.76Z" fill="#F55F44"/>
<path opacity="0.1" d="M261.45 365.95C263.56 365.95 265.27 364.24 265.27 362.13C265.27 360.02 263.56 358.31 261.45 358.31C259.34 358.31 257.63 360.02 257.63 362.13C257.63 364.24 259.34 365.95 261.45 365.95Z" fill="#F55F44"/>
<path opacity="0.1" d="M268.04 349.05C268.027 350.046 267.729 351.018 267.18 351.849C266.631 352.68 265.855 353.336 264.944 353.739C264.033 354.142 263.025 354.275 262.041 354.122C261.057 353.969 260.137 353.536 259.391 352.876C258.646 352.215 258.106 351.354 257.836 350.395C257.565 349.436 257.576 348.42 257.867 347.467C258.157 346.514 258.715 345.665 259.475 345.02C260.234 344.375 261.163 343.962 262.15 343.83V343.83C264.44 345.163 266.442 346.937 268.04 349.05V349.05Z" fill="#F55F44"/>
<path opacity="0.1" d="M268.43 372.31C266.73 374.731 264.507 376.739 261.926 378.184C259.345 379.629 256.472 380.476 253.52 380.66C253.52 380.39 253.52 380.11 253.52 379.83C253.514 378.086 253.995 376.376 254.909 374.891C255.822 373.406 257.132 372.205 258.691 371.424C260.249 370.642 261.995 370.311 263.731 370.468C265.468 370.624 267.126 371.262 268.52 372.31H268.43Z" fill="#F55F44"/>
<g opacity="0.1">
<path opacity="0.1" d="M493.59 202.05H390.59V206.05H493.59V202.05Z" fill="black"/>
</g>
</g>
<path d="M645.763 438.432C643.391 439.346 639.223 440.097 634.401 440.701C621.287 442.346 603.317 442.93 603.317 442.93C603.317 442.93 510.937 450.938 441.7 421.154C441.7 421.154 431.629 415.636 440.971 408.208C442.41 407.099 443.939 406.124 445.542 405.295L445.656 405.175C446.718 404.149 447.867 403.224 449.087 402.411C452.674 399.987 458.73 397.114 466.103 398.416L647.949 429.157C647.949 429.157 654.59 435.023 645.763 438.432Z" fill="#3F3D56"/>
<path d="M609.383 424.543L647.292 396.455L664 399.473L647.64 429.178C647.64 429.178 609.819 429.493 609.383 424.543Z" fill="#3F3D56"/>
<path d="M513.805 407.083L588.767 385L600.85 387.653L566.988 403.654L556.405 416.091L513.805 407.083Z" fill="#3F3D56"/>
<path d="M633.278 440.674C620.239 442.333 602.371 442.922 602.371 442.922C602.371 442.922 510.516 450.997 441.673 420.963C441.673 420.963 431.66 415.398 440.949 407.909L440.98 408.047C440.98 408.047 455.835 418.69 526.81 427.574L633.278 440.674Z" fill="#6C63FF"/>
<path d="M621.495 440.218L655.466 455.364L664 454.33L643.681 437.654C643.681 437.654 619.103 431.928 621.495 440.218Z" fill="#3F3D56"/>
<path d="M453.483 409.545C451.797 409.57 447.935 407.089 445.534 405.419C446.641 404.52 447.838 403.711 449.11 403C451.046 404.304 454.49 406.414 456.406 406.331C459.172 406.232 456.021 409.505 453.483 409.545Z" fill="#6C63FF"/>
<path d="M607.677 491.798L585.723 493L524 449.459L512.542 441.374L506.977 437.446C517.419 428.221 560.02 440.944 560.02 440.944C560.836 441.664 561.095 442.861 561.059 444.183C560.988 446.658 559.876 449.564 559.447 450.609C559.344 450.866 559.28 451.001 559.28 451.001L607.677 491.798Z" fill="#3F3D56"/>
<defs>
<linearGradient id="paint0_linear" x1="272.71" y1="586.52" x2="272.71" y2="732.18" gradientUnits="userSpaceOnUse">
<stop stop-color="#F2F2F2"/>
<stop offset="0.31" stop-color="#E6E6E6"/>
<stop offset="0.77" stop-color="#CCCCCC"/>
</linearGradient>
<linearGradient id="paint1_linear" x1="43632.4" y1="97409.1" x2="43632.4" y2="122849" gradientUnits="userSpaceOnUse">
<stop stop-color="#F2F2F2"/>
<stop offset="0.31" stop-color="#E6E6E6"/>
<stop offset="0.77" stop-color="#CCCCCC"/>
</linearGradient>
<linearGradient id="paint2_linear" x1="95650.5" y1="97409.1" x2="95650.5" y2="122849" gradientUnits="userSpaceOnUse">
<stop stop-color="#F2F2F2"/>
<stop offset="0.31" stop-color="#E6E6E6"/>
<stop offset="0.77" stop-color="#CCCCCC"/>
</linearGradient>
<linearGradient id="paint3_linear" x1="86814.4" y1="91039.2" x2="86814.4" y2="112256" gradientUnits="userSpaceOnUse">
<stop stop-color="#F2F2F2"/>
<stop offset="0.31" stop-color="#E6E6E6"/>
<stop offset="0.77" stop-color="#CCCCCC"/>
</linearGradient>
<linearGradient id="paint4_linear" x1="84118.4" y1="92911.4" x2="84118.4" y2="110301" gradientUnits="userSpaceOnUse">
<stop stop-color="#F2F2F2"/>
<stop offset="0.31" stop-color="#E6E6E6"/>
<stop offset="0.77" stop-color="#CCCCCC"/>
</linearGradient>
<linearGradient id="paint5_linear" x1="97329.7" y1="60371.7" x2="97329.7" y2="66672.9" gradientUnits="userSpaceOnUse">
<stop stop-color="#F2F2F2"/>
<stop offset="0.31" stop-color="#E6E6E6"/>
<stop offset="0.77" stop-color="#CCCCCC"/>
</linearGradient>
<linearGradient id="paint6_linear" x1="117488" y1="69944.8" x2="117488" y2="78771.4" gradientUnits="userSpaceOnUse">
<stop stop-color="#F2F2F2"/>
<stop offset="0.31" stop-color="#E6E6E6"/>
<stop offset="0.77" stop-color="#CCCCCC"/>
</linearGradient>
<linearGradient id="paint7_linear" x1="52358.2" y1="69985.2" x2="52358.2" y2="78816.9" gradientUnits="userSpaceOnUse">
<stop stop-color="#F2F2F2"/>
<stop offset="0.31" stop-color="#E6E6E6"/>
<stop offset="0.77" stop-color="#CCCCCC"/>
</linearGradient>
<linearGradient id="paint8_linear" x1="19679.7" y1="17066.3" x2="19679.7" y2="16352.3" gradientUnits="userSpaceOnUse">
<stop stop-color="#808080" stop-opacity="0.25"/>
<stop offset="0.54" stop-color="#808080" stop-opacity="0.12"/>
<stop offset="1" stop-color="#808080" stop-opacity="0.1"/>
</linearGradient>
<linearGradient id="paint9_linear" x1="18288.3" y1="15221.3" x2="18288.3" y2="15834.4" gradientUnits="userSpaceOnUse">
<stop stop-color="#F2F2F2"/>
<stop offset="0.31" stop-color="#E6E6E6"/>
<stop offset="0.77" stop-color="#CCCCCC"/>
</linearGradient>
<linearGradient id="paint10_linear" x1="23241.8" y1="22477.9" x2="23241.8" y2="21629.1" gradientUnits="userSpaceOnUse">
<stop stop-color="#808080" stop-opacity="0.25"/>
<stop offset="0.54" stop-color="#808080" stop-opacity="0.12"/>
<stop offset="1" stop-color="#808080" stop-opacity="0.1"/>
</linearGradient>
<linearGradient id="paint11_linear" x1="771.61" y1="718.34" x2="771.61" y2="746.02" gradientUnits="userSpaceOnUse">
<stop stop-color="#F2F2F2"/>
<stop offset="0.31" stop-color="#E0E0E0"/>
<stop offset="0.77" stop-color="#B3B3B3"/>
</linearGradient>
<linearGradient id="paint12_linear" x1="4876.56" y1="21931.5" x2="4876.56" y2="20906.3" gradientUnits="userSpaceOnUse">
<stop stop-color="#808080" stop-opacity="0.25"/>
<stop offset="0.54" stop-color="#808080" stop-opacity="0.12"/>
<stop offset="1" stop-color="#808080" stop-opacity="0.1"/>
</linearGradient>
<linearGradient id="paint13_linear" x1="4663.92" y1="20017.3" x2="4663.92" y2="20952.8" gradientUnits="userSpaceOnUse">
<stop stop-color="#F2F2F2"/>
<stop offset="0.31" stop-color="#E6E6E6"/>
<stop offset="0.77" stop-color="#CCCCCC"/>
</linearGradient>
<linearGradient id="paint14_linear" x1="75563.8" y1="13421.1" x2="75563.8" y2="5705.25" gradientUnits="userSpaceOnUse">
<stop stop-color="#808080" stop-opacity="0.25"/>
<stop offset="0.54" stop-color="#808080" stop-opacity="0.12"/>
<stop offset="1" stop-color="#808080" stop-opacity="0.1"/>
</linearGradient>
<linearGradient id="paint15_linear" x1="22115.9" y1="20602" x2="22115.9" y2="21368.2" gradientUnits="userSpaceOnUse">
<stop stop-color="#F2F2F2"/>
<stop offset="0.31" stop-color="#E6E6E6"/>
<stop offset="0.77" stop-color="#CCCCCC"/>
</linearGradient>
<linearGradient id="paint16_linear" x1="16554" y1="19033.7" x2="16554" y2="17283.1" gradientUnits="userSpaceOnUse">
<stop stop-color="#808080" stop-opacity="0.25"/>
<stop offset="0.54" stop-color="#808080" stop-opacity="0.12"/>
<stop offset="1" stop-color="#808080" stop-opacity="0.1"/>
</linearGradient>
<clipPath id="clip0">
<rect width="925.18" height="770.09" fill="white"/>
</clipPath>
</defs>
</svg>
